<svg width="2194" height="1239" viewBox="0 0 2194 1239" fill="none" xmlns="http://www.w3.org/2000/svg">
<g clip-path="url(#clip0)">
<path d="M256.344 848.5L475.881 975.25" stroke="#EEEEEE" stroke-width="5"/>
<path d="M531.74 1007.5L906.728 1224C921.077 1232.28 944.341 1232.28 958.69 1224L1291.24 1032" stroke="#EEEEEE" stroke-width="5"/>
<path d="M1485.23 458L1859.36 674C1873.71 682.284 1873.71 695.716 1859.36 704L1526.8 896" stroke="#EEEEEE" stroke-width="5"/>
<path d="M1723.39 320.5L2167.66 577C2182.01 585.284 2182.01 598.716 2167.66 607L1596.95 936.5" stroke="#EEEEEE" stroke-width="5"/>
<path d="M494.067 710.75L713.605 837.5" stroke="#65C591" stroke-width="5"/>
<path d="M770.763 870.5L908.408 949.969C922.756 958.254 946.02 958.254 960.369 949.969L1098.07 870.469C1112.42 862.185 1135.68 862.185 1150.03 870.469L1302.5 958.5" stroke="#65C591" stroke-width="5"/>
<path d="M1247.08 595.5L1384.72 674.969C1399.07 683.254 1399.07 696.685 1384.72 704.969L1247.02 784.469C1232.67 792.754 1232.67 806.185 1247.02 814.469L1399.5 902.5" stroke="#EEEEEE" stroke-width="5"/>
<path d="M732.657 573.5L951.762 700" stroke="#65C591" stroke-width="5"/>
<path d="M970.814 436L1189.92 562.5" stroke="#EEEEEE" stroke-width="5"/>
<path d="M1208.97 298.5L1428.08 425" stroke="#EEEEEE" stroke-width="5"/>
<path d="M1008.05 732.5L1351 930.5" stroke="#65C591" stroke-width="5"/>
<path d="M1447.13 161L1666.23 287.5" stroke="#EEEEEE" stroke-width="5"/>
<rect width="162" height="215" rx="10" transform="matrix(0.866025 -0.5 0.866025 0.5 14 790)" fill="url(#paint0_linear)"/>
<path fill-rule="evenodd" clip-rule="evenodd" d="M8.66019 787C5.85596 785.381 4.69585 783.172 5.17987 781.065L5.17987 768.104H15.1799V773.236L131.636 706C136.419 703.239 144.173 703.239 148.956 706L311.18 799.66V795.104H321.18V807.107C321.956 809.348 320.839 811.763 317.831 813.5L194.856 884.5C190.073 887.261 182.318 887.261 177.535 884.5L8.66019 787Z" fill="url(#paint1_linear)"/>
<rect width="162" height="215" rx="10" transform="matrix(0.866025 -0.5 0.866025 0.5 0 769)" fill="#EAEAEA"/>
<rect width="153.26" height="205.91" rx="10" transform="matrix(0.866025 -0.5 0.866025 0.5 7 768.63)" fill="white"/>
<rect width="125" height="7" rx="3.5" transform="matrix(0.866025 -0.5 0.866025 0.5 28.5305 767.199)" fill="#EEEEEE"/>
<rect width="125" height="7" rx="3.5" transform="matrix(0.866025 -0.5 0.866025 0.5 60.5735 785.699)" fill="#EEEEEE"/>
<rect width="105" height="6" rx="3" transform="matrix(0.866025 -0.5 0.866025 0.5 92.6165 804.199)" fill="#EEEEEE"/>
<rect width="85.5877" height="9.52903" rx="4.76452" transform="matrix(0.866025 -0.5 0.866025 0.5 112.388 815.847)" fill="#EEEEEE"/>
<rect width="112" height="6" rx="3" transform="matrix(0.866025 -0.5 0.866025 0.5 44.9851 776.699)" fill="#EEEEEE"/>
<rect width="97.5688" height="6.48093" rx="3.24047" transform="matrix(0.866025 -0.5 0.866025 0.5 76.3259 795.027)" fill="#EEEEEE"/>
<rect width="72.4814" height="6.48093" rx="3.24047" transform="matrix(0.866025 -0.5 0.866025 0.5 159.244 812.535)" fill="#EEEEEE"/>
<path d="M142.757 819.975L151.969 825.294L142.757 830.613L133.544 825.294L142.757 819.975ZM141.441 819.216L132.228 824.534C131.881 824.736 131.686 825.009 131.686 825.294C131.686 825.579 131.881 825.852 132.228 826.054L141.441 831.373C141.791 831.574 142.264 831.686 142.757 831.686C143.25 831.686 143.723 831.574 144.073 831.373L153.285 826.054C153.633 825.852 153.828 825.579 153.828 825.294C153.828 825.01 153.633 824.736 153.285 824.534L144.073 819.216C143.723 819.015 143.25 818.902 142.757 818.902C142.264 818.902 141.79 819.015 141.441 819.216Z" fill="#EEEEEE"/>
<rect width="76.7489" height="6.48093" rx="3.24047" transform="matrix(0.866025 -0.5 0.866025 0.5 189.856 830.209)" fill="#EEEEEE"/>
<path d="M173.369 837.65L182.582 842.968L173.369 848.287L164.157 842.968L173.369 837.65ZM172.053 836.89L162.841 842.208C162.493 842.41 162.298 842.684 162.298 842.968C162.298 843.253 162.493 843.526 162.841 843.728L172.053 849.047C172.403 849.248 172.876 849.36 173.369 849.36C173.863 849.36 174.336 849.248 174.686 849.047L183.898 843.728C184.245 843.526 184.441 843.253 184.441 842.968C184.441 842.684 184.245 842.41 183.898 842.209L174.685 836.89C174.336 836.689 173.862 836.576 173.369 836.576C172.876 836.576 172.403 836.689 172.053 836.89Z" fill="#EEEEEE"/>
<rect width="92.9863" height="6.48093" rx="3.24047" transform="matrix(0.866025 -0.5 0.866025 0.5 206.792 838.105)" fill="#EEEEEE"/>
<path d="M189.425 846.054L198.638 851.373L188.873 857.01L179.66 851.692L189.425 846.054ZM188.109 845.294L178.344 850.932C177.976 851.146 177.761 851.43 177.746 851.724C177.731 852.017 177.918 852.295 178.266 852.497L187.478 857.816C187.828 858.016 188.309 858.124 188.817 858.116C189.325 858.107 189.818 857.983 190.189 857.77L199.954 852.133C200.322 851.919 200.537 851.634 200.552 851.341C200.567 851.047 200.38 850.769 200.032 850.567L190.82 845.249C190.47 845.048 189.989 844.94 189.481 844.949C188.973 844.957 188.48 845.081 188.109 845.294Z" fill="#EEEEEE"/>
<rect width="91.4804" height="6.48093" rx="3.24047" transform="matrix(0.866025 -0.5 0.866025 0.5 177.484 819.678)" fill="#EEEEEE"/>
<path d="M158.096 827.274L147.889 833.166C147.503 833.39 147.271 833.684 147.244 833.984C147.217 834.285 147.398 834.567 147.747 834.768L156.96 840.087C157.309 840.288 157.797 840.393 158.318 840.378C158.838 840.362 159.347 840.228 159.734 840.005L169.941 834.112C170.327 833.889 170.559 833.595 170.586 833.294C170.613 832.994 170.432 832.712 170.083 832.511L160.87 827.192C160.521 826.99 160.033 826.886 159.512 826.901C158.992 826.916 158.483 827.051 158.096 827.274ZM160.747 836.381L153.812 836.586L153.912 835.457L158.885 835.306L159.424 829.227L161.386 829.173L160.747 836.381Z" fill="#20BA82"/>
<rect width="162" height="215" rx="10" transform="matrix(0.866025 -0.5 0.866025 0.5 491 515)" fill="url(#paint2_linear)"/>
<path fill-rule="evenodd" clip-rule="evenodd" d="M485.66 512C482.856 510.381 481.696 508.172 482.18 506.065L482.18 493.104H492.18V498.236L608.636 431C613.419 428.239 621.173 428.239 625.956 431L788.18 524.66V520.104H798.18V532.107C798.956 534.348 797.839 536.763 794.831 538.5L671.856 609.5C667.073 612.261 659.318 612.261 654.535 609.5L485.66 512Z" fill="url(#paint3_linear)"/>
<rect width="162" height="215" rx="10" transform="matrix(0.866025 -0.5 0.866025 0.5 477 494)" fill="#9BDDB5"/>
<rect width="153.26" height="205.91" rx="10" transform="matrix(0.866025 -0.5 0.866025 0.5 484 493.63)" fill="white"/>
<rect width="125" height="7" rx="3.5" transform="matrix(0.866025 -0.5 0.866025 0.5 572.334 531.63)" fill="#EEEEEE"/>
<rect width="98" height="7" rx="3.5" transform="matrix(0.866025 -0.5 0.866025 0.5 604.377 550.13)" fill="#EEEEEE"/>
<rect width="116" height="6" rx="3" transform="matrix(0.866025 -0.5 0.866025 0.5 588.789 541.13)" fill="#EEEEEE"/>
<rect width="58.6656" height="64" rx="5" transform="matrix(0.866025 -0.5 0.866025 0.5 506.305 493.365)" fill="#EEEEEE"/>
<rect width="124.584" height="49.662" rx="5" transform="matrix(0.866025 -0.5 0.866025 0.5 622.352 560.364)" fill="#EEEEEE"/>
<rect width="58.6656" height="64" rx="5" transform="matrix(0.866025 -0.5 0.866025 0.5 563.082 460.226)" fill="#EEEEEE"/>
<rect width="162" height="215" rx="10" transform="matrix(0.866025 -0.5 0.866025 0.5 729 376)" fill="url(#paint4_linear)"/>
<path fill-rule="evenodd" clip-rule="evenodd" d="M723.66 373C720.856 371.381 719.696 369.172 720.18 367.065L720.18 354.104H730.18V359.236L846.636 292C851.419 289.239 859.173 289.239 863.956 292L1026.18 385.66V381.104H1036.18V393.107C1036.96 395.348 1035.84 397.763 1032.83 399.5L909.856 470.5C905.073 473.261 897.318 473.261 892.535 470.5L723.66 373Z" fill="url(#paint5_linear)"/>
<rect width="162" height="215" rx="10" transform="matrix(0.866025 -0.5 0.866025 0.5 715 355)" fill="#EAEAEA"/>
<rect width="153.26" height="205.91" rx="10" transform="matrix(0.866025 -0.5 0.866025 0.5 722 354.63)" fill="white"/>
<rect width="125" height="7" rx="3.5" transform="matrix(0.866025 -0.5 0.866025 0.5 743.531 353.199)" fill="#EEEEEE"/>
<rect width="125" height="7" rx="3.5" transform="matrix(0.866025 -0.5 0.866025 0.5 775.573 371.699)" fill="#EEEEEE"/>
<rect width="105" height="6" rx="3" transform="matrix(0.866025 -0.5 0.866025 0.5 807.616 390.199)" fill="#EEEEEE"/>
<rect width="85.5877" height="9.52903" rx="4.76452" transform="matrix(0.866025 -0.5 0.866025 0.5 827.388 401.847)" fill="#EEEEEE"/>
<rect width="112" height="6" rx="3" transform="matrix(0.866025 -0.5 0.866025 0.5 759.985 362.699)" fill="#EEEEEE"/>
<rect width="97.5688" height="6.48093" rx="3.24047" transform="matrix(0.866025 -0.5 0.866025 0.5 791.326 381.027)" fill="#EEEEEE"/>
<rect width="72.4814" height="6.48093" rx="3.24047" transform="matrix(0.866025 -0.5 0.866025 0.5 874.244 398.535)" fill="#EEEEEE"/>
<path d="M857.757 405.975L866.969 411.294L857.757 416.613L848.544 411.294L857.757 405.975ZM856.441 405.216L847.228 410.534C846.881 410.736 846.685 411.009 846.685 411.294C846.685 411.579 846.881 411.852 847.228 412.054L856.441 417.373C856.79 417.574 857.264 417.686 857.757 417.686C858.25 417.686 858.723 417.574 859.073 417.373L868.285 412.054C868.633 411.852 868.828 411.579 868.828 411.294C868.828 411.01 868.633 410.736 868.285 410.534L859.073 405.216C858.723 405.015 858.25 404.902 857.757 404.902C857.263 404.902 856.79 405.015 856.441 405.216Z" fill="#EEEEEE"/>
<rect width="76.7489" height="6.48093" rx="3.24047" transform="matrix(0.866025 -0.5 0.866025 0.5 904.856 416.209)" fill="#EEEEEE"/>
<path d="M888.369 423.65L897.582 428.968L888.369 434.287L879.157 428.968L888.369 423.65ZM887.053 422.89L877.841 428.208C877.493 428.41 877.298 428.684 877.298 428.968C877.298 429.253 877.493 429.526 877.841 429.728L887.053 435.047C887.403 435.248 887.876 435.36 888.369 435.36C888.863 435.36 889.336 435.248 889.685 435.047L898.898 429.728C899.245 429.526 899.441 429.253 899.441 428.968C899.441 428.684 899.245 428.41 898.898 428.209L889.685 422.89C889.335 422.689 888.862 422.576 888.369 422.576C887.876 422.576 887.403 422.689 887.053 422.89Z" fill="#EEEEEE"/>
<rect width="92.9863" height="6.48093" rx="3.24047" transform="matrix(0.866025 -0.5 0.866025 0.5 921.793 424.105)" fill="#EEEEEE"/>
<path d="M904.425 432.054L913.638 437.373L903.873 443.01L894.661 437.692L904.425 432.054ZM903.109 431.294L893.345 436.932C892.976 437.146 892.761 437.43 892.746 437.724C892.731 438.017 892.918 438.295 893.266 438.497L902.478 443.816C902.828 444.016 903.309 444.124 903.817 444.116C904.325 444.107 904.818 443.983 905.189 443.77L914.954 438.133C915.322 437.919 915.537 437.634 915.552 437.341C915.567 437.047 915.38 436.769 915.033 436.567L905.82 431.249C905.47 431.048 904.989 430.94 904.481 430.949C903.973 430.957 903.48 431.081 903.109 431.294Z" fill="#EEEEEE"/>
<rect width="91.4804" height="6.48093" rx="3.24047" transform="matrix(0.866025 -0.5 0.866025 0.5 892.484 405.678)" fill="#EEEEEE"/>
<path d="M873.096 413.274L862.89 419.166C862.503 419.39 862.271 419.684 862.244 419.984C862.217 420.285 862.399 420.567 862.748 420.768L871.96 426.087C872.309 426.288 872.797 426.393 873.318 426.378C873.838 426.362 874.347 426.228 874.734 426.005L884.941 420.112C885.327 419.889 885.56 419.595 885.586 419.294C885.613 418.994 885.432 418.712 885.083 418.511L875.87 413.192C875.521 412.99 875.033 412.886 874.513 412.901C873.992 412.916 873.483 413.051 873.096 413.274ZM875.747 422.381L868.812 422.586L868.912 421.457L873.885 421.306L874.424 415.227L876.386 415.173L875.747 422.381Z" fill="#20BA82"/>
<rect width="162" height="215" rx="10" transform="matrix(0.866025 -0.5 0.866025 0.5 967 240)" fill="url(#paint6_linear)"/>
<path fill-rule="evenodd" clip-rule="evenodd" d="M961.66 237C958.856 235.381 957.696 233.172 958.18 231.065L958.18 218.104H968.18V223.236L1084.64 156C1089.42 153.239 1097.17 153.239 1101.96 156L1264.18 249.66V245.104H1274.18V257.107C1274.96 259.348 1273.84 261.763 1270.83 263.5L1147.86 334.5C1143.07 337.261 1135.32 337.261 1130.54 334.5L961.66 237Z" fill="url(#paint7_linear)"/>
<rect width="162" height="215" rx="10" transform="matrix(0.866025 -0.5 0.866025 0.5 953 219)" fill="#EAEAEA"/>
<rect width="153.262" height="205.909" rx="10" transform="matrix(0.866025 -0.5 0.866025 0.5 960 218.631)" fill="white"/>
<rect width="127.693" height="6.4809" rx="3.24045" transform="matrix(0.866025 -0.5 0.866025 0.5 981.757 217.563)" fill="#EEEEEE"/>
<rect width="127.631" height="6.4809" rx="3.24045" transform="matrix(0.866025 -0.5 0.866025 0.5 1014.51 236.472)" fill="#EEEEEE"/>
<rect width="118.092" height="6.4809" rx="3.24045" transform="matrix(0.866025 -0.5 0.866025 0.5 1047.26 255.381)" fill="#EEEEEE"/>
<rect width="110.586" height="6.4809" rx="3.24045" transform="matrix(0.866025 -0.5 0.866025 0.5 998.132 227.018)" fill="#EEEEEE"/>
<rect width="97.5699" height="6.4809" rx="3.24045" transform="matrix(0.866025 -0.5 0.866025 0.5 1030.88 245.927)" fill="#EEEEEE"/>
<rect width="126.013" height="81.7284" rx="5" transform="matrix(0.866025 -0.5 0.866025 0.5 1068.96 267.908)" fill="#EEEEEE"/>
<rect width="162" height="215" rx="10" transform="matrix(0.866025 -0.5 0.866025 0.5 1205 102)" fill="url(#paint8_linear)"/>
<path fill-rule="evenodd" clip-rule="evenodd" d="M1199.66 99C1196.86 97.381 1195.7 95.1722 1196.18 93.0652L1196.18 80.1038H1206.18V85.2359L1322.64 18C1327.42 15.2386 1335.17 15.2386 1339.96 18L1502.18 111.66V107.104H1512.18V119.107C1512.96 121.348 1511.84 123.763 1508.83 125.5L1385.86 196.5C1381.07 199.261 1373.32 199.261 1368.54 196.5L1199.66 99Z" fill="url(#paint9_linear)"/>
<rect width="162" height="215" rx="10" transform="matrix(0.866025 -0.5 0.866025 0.5 1191 81)" fill="#EAEAEA"/>
<rect width="153.26" height="205.91" rx="10" transform="matrix(0.866025 -0.5 0.866025 0.5 1198 80.6299)" fill="white"/>
<rect width="125" height="7" rx="3.5" transform="matrix(0.866025 -0.5 0.866025 0.5 1286.33 118.63)" fill="#EEEEEE"/>
<rect width="98" height="7" rx="3.5" transform="matrix(0.866025 -0.5 0.866025 0.5 1318.38 137.13)" fill="#EEEEEE"/>
<rect width="116" height="6" rx="3" transform="matrix(0.866025 -0.5 0.866025 0.5 1302.79 128.13)" fill="#EEEEEE"/>
<rect width="58.6656" height="64" rx="5" transform="matrix(0.866025 -0.5 0.866025 0.5 1220.31 80.3647)" fill="#EEEEEE"/>
<rect width="124.584" height="49.662" rx="5" transform="matrix(0.866025 -0.5 0.866025 0.5 1336.35 147.364)" fill="#EEEEEE"/>
<rect width="58.6656" height="64" rx="5" transform="matrix(0.866025 -0.5 0.866025 0.5 1277.08 47.2258)" fill="#EEEEEE"/>
<rect width="133" height="66" rx="10" transform="matrix(0.866025 -0.5 0.866025 0.5 698 895.5)" fill="url(#paint10_linear)"/>
<path fill-rule="evenodd" clip-rule="evenodd" d="M823 836.704V788L782 805.308L742.874 833.643L722.892 834.569C719.95 834.706 717.191 835.451 715.125 836.669L699.859 845.663L703 842.25L661 822V871.091L661.015 871.098C660.851 873.023 662.044 874.978 664.587 876.447L704.054 899.233C708.837 901.994 716.592 901.994 721.375 899.233L819.489 842.586C822.455 840.874 823.469 838.718 823 836.704Z" fill="url(#paint11_linear)"/>
<rect width="133" height="66" rx="10" transform="matrix(0.866025 -0.5 0.866025 0.5 656 821.5)" fill="#E5F5EE"/>
<path d="M774.601 799.025L771.223 800.976L757.651 793.14C756.031 792.205 754.785 791.441 753.912 790.849C753.922 791.109 753.903 791.414 753.855 791.762C753.817 792.105 753.625 793.234 753.28 795.149L749.441 794.892L750.764 788.517L753.582 786.89L774.601 799.025ZM785.241 780.747C788.893 782.855 791.016 784.762 791.61 786.466C792.214 788.165 791.308 789.712 788.893 791.106C786.554 792.457 783.865 792.952 780.827 792.592C777.788 792.233 774.501 791.032 770.964 788.99C767.255 786.848 765.108 784.933 764.523 783.246C763.938 781.547 764.849 780.003 767.255 778.614C769.603 777.258 772.301 776.763 775.349 777.128C778.397 777.493 781.694 778.7 785.241 780.747ZM774.386 787.014C777.252 788.669 779.59 789.681 781.402 790.052C783.223 790.417 784.781 790.227 786.075 789.479C787.369 788.732 787.69 787.828 787.038 786.765C786.396 785.697 784.661 784.347 781.833 782.714C779.015 781.087 776.677 780.086 774.817 779.709C772.958 779.322 771.381 779.502 770.087 780.249C768.793 780.996 768.467 781.898 769.109 782.955C769.761 784.007 771.52 785.36 774.386 787.014Z" fill="#20BA82"/>
<path d="M702.621 818L719.22 808.417L724.2 811.292L724.2 803.625L710.92 803.625L715.9 806.5L695.982 818L705.941 823.75L709.261 821.833L702.621 818ZM735.819 818L719.22 827.583L714.24 824.708L714.24 832.375L727.519 832.375L722.54 829.5L742.458 818L732.499 812.25L729.179 814.167L735.819 818Z" fill="#20BA82"/>
<rect width="133" height="66" rx="10" transform="matrix(0.866025 -0.5 0.866025 0.5 935 757.5)" fill="url(#paint12_linear)"/>
<path fill-rule="evenodd" clip-rule="evenodd" d="M1060 698.704V650L1019 667.308L979.874 695.643L959.892 696.569C956.95 696.706 954.191 697.451 952.125 698.669L936.859 707.663L940 704.25L898 684V733.091L898.015 733.098C897.851 735.023 899.044 736.978 901.587 738.447L941.054 761.233C945.837 763.994 953.592 763.994 958.375 761.233L1056.49 704.586C1059.45 702.874 1060.47 700.718 1060 698.704Z" fill="url(#paint13_linear)"/>
<rect width="133" height="66" rx="10" transform="matrix(0.866025 -0.5 0.866025 0.5 893 683.5)" fill="#E5F5EE"/>
<path d="M1011.6 661.025L1008.22 662.976L994.651 655.14C993.031 654.205 991.785 653.441 990.912 652.849C990.922 653.109 990.903 653.414 990.855 653.762C990.817 654.105 990.625 655.234 990.28 657.149L986.441 656.892L987.764 650.517L990.582 648.89L1011.6 661.025ZM1022.24 642.747C1025.89 644.855 1028.02 646.762 1028.61 648.466C1029.21 650.165 1028.31 651.712 1025.89 653.106C1023.55 654.457 1020.87 654.952 1017.83 654.592C1014.79 654.233 1011.5 653.032 1007.96 650.99C1004.25 648.848 1002.11 646.933 1001.52 645.246C1000.94 643.547 1001.85 642.003 1004.25 640.614C1006.6 639.258 1009.3 638.763 1012.35 639.128C1015.4 639.493 1018.69 640.7 1022.24 642.747ZM1011.39 649.014C1014.25 650.669 1016.59 651.681 1018.4 652.052C1020.22 652.417 1021.78 652.227 1023.07 651.479C1024.37 650.732 1024.69 649.828 1024.04 648.765C1023.4 647.697 1021.66 646.347 1018.83 644.714C1016.02 643.087 1013.68 642.086 1011.82 641.709C1009.96 641.322 1008.38 641.502 1007.09 642.249C1005.79 642.996 1005.47 643.898 1006.11 644.955C1006.76 646.007 1008.52 647.36 1011.39 649.014Z" fill="#20BA82"/>
<path d="M939.621 680L956.22 670.417L961.2 673.292L961.2 665.625L947.92 665.625L952.9 668.5L932.982 680L942.941 685.75L946.261 683.833L939.621 680ZM972.819 680L956.22 689.583L951.24 686.708L951.24 694.375L964.519 694.375L959.54 691.5L979.458 680L969.499 674.25L966.179 676.167L972.819 680Z" fill="#20BA82"/>
<rect width="133" height="66" rx="10" transform="matrix(0.866025 -0.5 0.866025 0.5 450 1027.5)" fill="url(#paint14_linear)"/>
<path fill-rule="evenodd" clip-rule="evenodd" d="M584 973.704V940L563 956.15L531.522 969.361L483.892 971.569C480.95 971.706 478.191 972.451 476.125 973.669L446.971 990.846L449 987.818L422 974V1008.55L422.001 1008.55C422.044 1010.32 423.241 1012.09 425.587 1013.45L465.054 1036.23C469.837 1038.99 477.592 1038.99 482.375 1036.23L580.489 979.586C583.455 977.874 584.469 975.718 584 973.704Z" fill="url(#paint15_linear)"/>
<rect width="133" height="66" rx="10" transform="matrix(0.866025 -0.5 0.866025 0.5 417 974.5)" fill="#EAEAEA"/>
<path d="M522.006 959.875L512.301 944.676L501.374 950.985L498.398 949.267L512.934 940.875L515.291 942.236L525.658 957.767L522.006 959.875ZM537.979 947.083C539.302 948.378 540.754 950.191 542.335 952.521L539.848 953.957C537.921 952.081 536.009 950.407 534.111 948.935L537.433 947.017L537.979 947.083ZM554.729 935.687L551.896 937.322L556.483 939.97L553.19 941.871L548.604 939.223L539 944.768L536.397 943.265L532.113 929.702L535.405 927.801L549.093 935.703L551.925 934.068L554.729 935.687ZM545.8 937.604L540.524 934.558C538.645 933.473 537.155 932.557 536.052 931.81L535.937 931.876C536.302 932.397 536.647 933.083 536.973 933.935L539.345 941.331L545.8 937.604Z" fill="#999999"/>
<path d="M461.023 972.5L477.622 962.917L482.601 965.792L482.601 958.125L469.322 958.125L474.302 961L454.383 972.5L464.343 978.25L467.662 976.333L461.023 972.5ZM494.221 972.5L477.622 982.083L472.642 979.208L472.642 986.875L485.921 986.875L480.942 984L500.86 972.5L490.901 966.75L487.581 968.667L494.221 972.5Z" fill="#999999"/>
<rect width="133" height="66" rx="10" transform="matrix(0.866025 -0.5 0.866025 0.5 1164 614.5)" fill="url(#paint16_linear)"/>
<path fill-rule="evenodd" clip-rule="evenodd" d="M1299 561.704V533L1278 547.25L1251 555.5L1259.16 556.775L1198.89 559.569C1195.95 559.706 1193.19 560.451 1191.12 561.669L1162.69 578.42L1137 567V597L1137.04 597.011C1137.26 598.629 1138.45 600.21 1140.59 601.447L1180.05 624.233C1184.84 626.994 1192.59 626.994 1197.37 624.233L1295.49 567.586C1298.45 565.874 1299.47 563.718 1299 561.704Z" fill="url(#paint17_linear)"/>
<rect width="133" height="66" rx="10" transform="matrix(0.866025 -0.5 0.866025 0.5 1132 566.5)" fill="#EAEAEA"/>
<path d="M1225.72 548.048C1217.5 543.3 1216.73 538.992 1223.43 535.124C1224.49 534.515 1225.46 534.048 1226.35 533.721L1229.17 535.348C1228.23 535.647 1227.28 536.073 1226.32 536.626C1224.07 537.927 1222.98 539.252 1223.06 540.603C1223.14 541.953 1224.46 543.425 1227.03 545.019L1227.2 544.919C1226.87 544.211 1226.91 543.5 1227.3 542.786C1227.68 542.066 1228.43 541.388 1229.53 540.752C1231.44 539.651 1233.51 539.131 1235.74 539.191C1237.97 539.252 1240.09 539.861 1242.1 541.018C1244.3 542.29 1245.43 543.654 1245.47 545.11C1245.52 546.554 1244.48 547.891 1242.35 549.119C1240.85 549.988 1239.18 550.536 1237.35 550.763C1235.51 550.984 1233.6 550.871 1231.61 550.422C1229.63 549.963 1227.67 549.172 1225.72 548.048ZM1239.51 547.542C1240.67 546.872 1241.18 546.142 1241.06 545.351C1240.94 544.554 1240.19 543.754 1238.8 542.952C1237.6 542.254 1236.35 541.878 1235.06 541.823C1233.79 541.762 1232.56 542.072 1231.38 542.752C1230.66 543.173 1230.14 543.652 1229.85 544.188C1229.54 544.72 1229.48 545.245 1229.67 545.766C1229.86 546.28 1230.23 546.701 1230.79 547.027C1232.15 547.808 1233.65 548.256 1235.31 548.372C1236.97 548.477 1238.37 548.201 1239.51 547.542ZM1252.98 539.083C1254.3 540.378 1255.75 542.191 1257.34 544.521L1254.85 545.957C1252.92 544.081 1251.01 542.407 1249.11 540.935L1252.43 539.017L1252.98 539.083ZM1261.71 537.614L1252 522.416L1241.07 528.724L1238.1 527.006L1252.63 518.614L1254.99 519.975L1265.36 535.506L1261.71 537.614Z" fill="#999999"/>
<path d="M1176.02 564.5L1192.62 554.917L1197.6 557.792L1197.6 550.125L1184.32 550.125L1189.3 553L1169.38 564.5L1179.34 570.25L1182.66 568.333L1176.02 564.5ZM1209.22 564.5L1192.62 574.083L1187.64 571.208L1187.64 578.875L1200.92 578.875L1195.94 576L1215.86 564.5L1205.9 558.75L1202.58 560.667L1209.22 564.5Z" fill="#999999"/>
<rect width="133" height="66" rx="10" transform="matrix(0.866025 -0.5 0.866025 0.5 1392 470.5)" fill="url(#paint18_linear)"/>
<path fill-rule="evenodd" clip-rule="evenodd" d="M1538 423.801V405L1516.5 414.5L1519.52 417.784L1437.87 421.569C1434.93 421.706 1432.17 422.451 1430.1 423.669L1391.06 446.675L1376 438.5V458.027C1375.8 459.975 1376.99 461.96 1379.57 463.447L1419.03 486.233C1423.82 488.994 1431.57 488.994 1436.35 486.233L1534.47 429.586C1537.39 427.902 1538.41 425.788 1538 423.801Z" fill="url(#paint19_linear)"/>
<rect width="133" height="66" rx="10" transform="matrix(0.866025 -0.5 0.866025 0.5 1371 438.5)" fill="#EAEAEA"/>
<path d="M1484.03 413.947L1481.2 415.583L1485.78 418.23L1482.49 420.131L1477.9 417.483L1468.3 423.028L1465.7 421.526L1461.41 407.962L1464.7 406.062L1478.39 413.964L1481.22 412.329L1484.03 413.947ZM1475.1 415.865L1469.82 412.818C1467.94 411.734 1466.45 410.818 1465.35 410.071L1465.24 410.137C1465.6 410.657 1465.95 411.344 1466.27 412.196L1468.64 419.592L1475.1 415.865ZM1491.98 411.083C1493.3 412.378 1494.75 414.191 1496.34 416.521L1493.85 417.957C1491.92 416.081 1490.01 414.407 1488.11 412.935L1491.43 411.017L1491.98 411.083ZM1495.59 393.876C1496.92 394.645 1497.64 395.511 1497.76 396.474C1497.86 397.431 1497.37 398.405 1496.26 399.396L1496.38 399.462C1498.28 398.61 1500.07 398.184 1501.76 398.184C1503.43 398.179 1504.97 398.577 1506.36 399.379C1508.38 400.547 1509.23 401.861 1508.9 403.322C1508.57 404.778 1507.08 406.266 1504.44 407.788C1502.11 409.133 1499.77 410.049 1497.41 410.536L1494.41 408.801C1495.74 408.541 1497.03 408.192 1498.26 407.755C1499.5 407.318 1500.58 406.833 1501.5 406.302C1503.13 405.361 1504.04 404.484 1504.24 403.671C1504.44 402.857 1503.91 402.085 1502.65 401.355C1501.53 400.708 1500.26 400.489 1498.84 400.699C1497.42 400.91 1495.76 401.565 1493.85 402.667L1492.02 403.721L1489.28 402.135L1491.13 401.064C1494.49 399.128 1495 397.49 1492.68 396.15C1491.78 395.63 1490.8 395.398 1489.72 395.453C1488.65 395.508 1487.54 395.865 1486.4 396.524C1485.6 396.983 1484.95 397.492 1484.45 398.051C1483.93 398.605 1483.49 399.36 1483.14 400.317L1479.13 399.911C1479.63 397.979 1481.16 396.278 1483.71 394.806C1485.83 393.583 1487.94 392.891 1490.04 392.73C1492.14 392.57 1493.99 392.952 1495.59 393.876Z" fill="#999999"/>
<path d="M1415.02 436.5L1431.62 426.917L1436.6 429.792L1436.6 422.125L1423.32 422.125L1428.3 425L1408.38 436.5L1418.34 442.25L1421.66 440.333L1415.02 436.5ZM1448.22 436.5L1431.62 446.083L1426.64 443.208L1426.64 450.875L1439.92 450.875L1434.94 448L1454.86 436.5L1444.9 430.75L1441.58 432.667L1448.22 436.5Z" fill="#999999"/>
<rect width="133" height="66" rx="10" transform="matrix(0.866025 -0.5 0.866025 0.5 1642 340.5)" fill="url(#paint20_linear)"/>
<path fill-rule="evenodd" clip-rule="evenodd" d="M1776 286.704V248L1735 261.5L1722 282.412L1722.15 282.425L1675.89 284.569C1672.95 284.706 1670.19 285.451 1668.12 286.669L1650.06 297.313L1614 282V322L1614.04 322.015C1614.26 323.631 1615.45 325.211 1617.59 326.447L1657.05 349.233C1661.84 351.994 1669.59 351.994 1674.37 349.233L1772.49 292.586C1775.45 290.874 1776.47 288.718 1776 286.704Z" fill="url(#paint21_linear)"/>
<rect width="133" height="66" rx="10" transform="matrix(0.866025 -0.5 0.866025 0.5 1609 281.5)" fill="#EAEAEA"/>
<path d="M1697.43 251.859C1699.42 250.708 1701.46 250.063 1703.54 249.925C1705.61 249.781 1707.41 250.152 1708.94 251.037C1711.1 252.282 1711.52 254.02 1710.21 256.25C1712.68 255.774 1714.72 255.6 1716.32 255.727C1717.93 255.849 1719.3 256.233 1720.42 256.881C1722.15 257.882 1722.91 259.053 1722.68 260.392C1722.45 261.731 1721.24 263.029 1719.07 264.285C1716.79 265.602 1714.53 266.341 1712.29 266.501C1710.06 266.662 1708.05 266.225 1706.26 265.19C1705.09 264.515 1704.36 263.721 1704.09 262.808C1703.81 261.883 1704.05 260.779 1704.82 259.496C1702.77 259.794 1701.04 259.855 1699.64 259.678C1698.24 259.501 1697.01 259.105 1695.95 258.491C1694.42 257.611 1693.81 256.565 1694.11 255.354C1694.39 254.136 1695.5 252.971 1697.43 251.859ZM1709.38 263.256C1710.37 263.831 1711.5 264.078 1712.75 263.995C1714 263.906 1715.22 263.516 1716.42 262.824C1717.66 262.11 1718.33 261.394 1718.45 260.674C1718.56 259.944 1718.13 259.296 1717.15 258.732C1716.38 258.284 1715.35 258.057 1714.08 258.051C1712.8 258.046 1711.25 258.256 1709.42 258.682L1708.82 258.815C1708.11 259.866 1707.81 260.746 1707.92 261.455C1708.03 262.157 1708.51 262.758 1709.38 263.256ZM1700 253.378C1699.04 253.931 1698.51 254.515 1698.41 255.129C1698.29 255.738 1698.64 256.278 1699.46 256.748C1699.95 257.036 1700.51 257.232 1701.11 257.337C1701.71 257.443 1702.38 257.473 1703.11 257.429C1703.83 257.379 1704.89 257.207 1706.3 256.914C1706.94 255.957 1707.22 255.182 1707.13 254.59C1707.05 253.987 1706.63 253.469 1705.88 253.038C1705.07 252.567 1704.13 252.368 1703.06 252.44C1702 252.501 1700.98 252.813 1700 253.378ZM1729.98 254.083C1731.3 255.378 1732.75 257.191 1734.34 259.521L1731.85 260.957C1729.92 259.081 1728.01 257.407 1726.11 255.935L1729.43 254.017L1729.98 254.083ZM1746.24 248.265L1742.86 250.215L1729.29 242.379C1727.67 241.444 1726.42 240.681 1725.55 240.088C1725.56 240.348 1725.54 240.653 1725.49 241.001C1725.45 241.345 1725.26 242.473 1724.92 244.388L1721.08 244.131L1722.4 237.756L1725.22 236.129L1746.24 248.265Z" fill="#999999"/>
<path d="M1653.02 279.5L1669.62 269.917L1674.6 272.792L1674.6 265.125L1661.32 265.125L1666.3 268L1646.38 279.5L1656.34 285.25L1659.66 283.333L1653.02 279.5ZM1686.22 279.5L1669.62 289.083L1664.64 286.208L1664.64 293.875L1677.92 293.875L1672.94 291L1692.86 279.5L1682.9 273.75L1679.58 275.667L1686.22 279.5Z" fill="#999999"/>
<rect width="302.626" height="272.364" rx="10" transform="matrix(0.866025 -0.5 0.866025 0.5 1300 1037.31)" fill="url(#paint22_linear)" fill-opacity="0.8"/>
<path fill-rule="evenodd" clip-rule="evenodd" d="M1244.64 1005.42C1240.77 1004.04 1238 1000.34 1238 996V908H1396.06L1460.24 870.946C1465.02 868.185 1472.78 868.185 1477.56 870.946L1541.74 908H1699V996C1699 999.143 1697.55 1001.95 1695.28 1003.78C1694.73 1004.37 1694.02 1004.92 1693.16 1005.42L1477.56 1129.9C1472.78 1132.66 1465.02 1132.66 1460.24 1129.9L1244.64 1005.42C1244.64 1005.42 1244.64 1005.42 1244.64 1005.42Z" fill="url(#paint23_linear)"/>
<rect width="272.114" height="272.114" rx="10" transform="matrix(0.866025 -0.5 0.866025 0.5 1233 908.057)" fill="#FAFAFA"/>
<rect width="302.626" height="272.364" rx="10" transform="matrix(0.866025 -0.5 0.866025 0.5 1300 1037.31)" fill="url(#paint24_linear)" fill-opacity="0.8"/>
<path fill-rule="evenodd" clip-rule="evenodd" d="M1244.64 1005.42C1240.77 1004.04 1238 1000.34 1238 996V908H1396.06L1460.24 870.946C1465.02 868.185 1472.78 868.185 1477.56 870.946L1541.74 908H1699V996C1699 999.143 1697.55 1001.95 1695.28 1003.78C1694.73 1004.37 1694.02 1004.92 1693.16 1005.42L1477.56 1129.9C1472.78 1132.66 1465.02 1132.66 1460.24 1129.9L1244.64 1005.42C1244.64 1005.42 1244.64 1005.42 1244.64 1005.42Z" fill="url(#paint25_linear)"/>
<rect width="272.114" height="272.114" rx="10" transform="matrix(0.866025 -0.5 0.866025 0.5 1233 908.057)" fill="#FAFAFA"/>
<rect width="162" height="215" rx="10" transform="matrix(0.866025 -0.5 0.866025 0.5 252 652)" fill="url(#paint26_linear)"/>
<path fill-rule="evenodd" clip-rule="evenodd" d="M246.66 649C243.856 647.381 242.696 645.172 243.18 643.065L243.18 630.104H253.18V635.236L369.636 568C374.419 565.239 382.173 565.239 386.956 568L549.18 661.66V657.104H559.18V669.107C559.956 671.348 558.839 673.763 555.831 675.5L432.856 746.5C428.073 749.261 420.318 749.261 415.535 746.5L246.66 649Z" fill="url(#paint27_linear)"/>
<rect width="162" height="215" rx="10" transform="matrix(0.866025 -0.5 0.866025 0.5 238 631)" fill="#9BDDB5"/>
<rect width="153.262" height="205.909" rx="10" transform="matrix(0.866025 -0.5 0.866025 0.5 245 630.631)" fill="white"/>
<rect width="127.693" height="6.4809" rx="3.24045" transform="matrix(0.866025 -0.5 0.866025 0.5 266.757 629.563)" fill="#EEEEEE"/>
<rect width="127.631" height="6.4809" rx="3.24045" transform="matrix(0.866025 -0.5 0.866025 0.5 299.508 648.472)" fill="#EEEEEE"/>
<rect width="118.092" height="6.4809" rx="3.24045" transform="matrix(0.866025 -0.5 0.866025 0.5 332.259 667.381)" fill="#EEEEEE"/>
<rect width="110.586" height="6.4809" rx="3.24045" transform="matrix(0.866025 -0.5 0.866025 0.5 283.132 639.018)" fill="#EEEEEE"/>
<rect width="97.5699" height="6.4809" rx="3.24045" transform="matrix(0.866025 -0.5 0.866025 0.5 315.884 657.927)" fill="#EEEEEE"/>
<rect width="126.013" height="81.7284" rx="5" transform="matrix(0.866025 -0.5 0.866025 0.5 353.956 679.908)" fill="#EEEEEE"/>
<path d="M-389 857.82L1510.75 -239L2583.75 380.5L684.005 1477.32L-389 857.82Z" fill="url(#paint28_linear)"/>
<g clip-path="url(#clip1)">
<path d="M1535.41 882.045C1540.77 882.33 1544.7 880.212 1544.88 879.534C1545.05 878.855 1542.31 876.426 1536.9 876.165C1529.88 875.795 1523.29 878.465 1523.29 878.465C1523.29 878.465 1528.34 881.7 1535.41 882.045Z" fill="#A8E8C1"/>
<path d="M1560.37 900.41C1561.19 899.871 1561.5 896.972 1557.46 895.097C1552.18 892.616 1544.21 892.859 1544.21 892.859C1544.21 892.859 1544.95 897.143 1550.23 899.624C1554.22 901.523 1559.55 900.949 1560.37 900.41Z" fill="#A8E8C1"/>
<path d="M1572.15 888.342C1569.3 891.441 1563.29 892.38 1562.04 892.077C1561.36 891.811 1560.86 891.397 1560.58 890.911C1560.93 891.55 1561.33 892.164 1561.64 892.827C1564.19 898.536 1563.69 904.563 1560.25 910.125C1561.24 909.59 1562.45 909.134 1563.74 908.832C1571.29 906.914 1579.78 908.348 1579.78 908.348C1579.78 908.348 1575.78 912.94 1568.14 914.857C1563.03 916.142 1558.32 915.214 1556.96 914.479C1554.85 916.785 1552.32 918.931 1549.4 920.893C1550.83 920.417 1552.42 920.095 1554.05 919.951C1562.14 919.307 1569.14 922.126 1569.14 922.126C1569.14 922.126 1562.83 925.963 1554.74 926.608C1548.59 927.09 1544.52 924.835 1544.39 924.075C1544.4 923.974 1544.45 923.899 1544.5 923.825C1541.96 925.188 1539.22 926.42 1536.35 927.524C1535.75 927.361 1537.38 926.884 1536.78 926.72C1547.03 922.962 1552.91 917.782 1557.59 911.309C1556.29 911.864 1550.45 912.276 1546.42 910.098C1540.96 907.134 1540.99 902.234 1540.99 902.234C1540.99 902.234 1550.05 902.19 1555.52 905.155C1557.76 906.387 1558.92 908.154 1558.51 909.939C1561.9 904.552 1562.38 898.676 1559.92 893.121C1559.34 891.821 1558.55 890.542 1557.61 889.336C1557.89 889.771 1557.86 890.275 1557.66 890.726C1557.01 891.319 1552.12 892.584 1547.56 891.38C1541.53 889.793 1539.27 885.883 1539.27 885.883C1539.27 885.883 1546.92 884.598 1552.86 886.183C1554.33 886.567 1555.51 887.146 1556.43 887.923C1551.02 881.903 1541.94 877.224 1530.93 874.804C1530.14 876.353 1528.1 877.55 1525.49 878.078C1519.94 879.304 1514.07 878.074 1514.07 878.074C1514.07 878.074 1517.28 874.881 1522.82 873.654C1523.18 873.561 1523.53 873.517 1523.88 873.474C1522.02 873.209 1520.06 872.992 1518.15 872.853C1516.5 874.082 1513.96 874.864 1511.24 874.91C1505.46 875.046 1504.27 870.883 1504.27 870.883C1504.27 870.883 1505.84 870.255 1511.62 870.119C1514.21 869.995 1516.71 870.651 1518.25 871.87C1519.69 871.975 1521.12 872.13 1522.56 872.285C1521.91 872.095 1521.36 871.857 1520.85 871.594C1517.04 869.446 1517.26 865.914 1517.26 865.914C1517.26 865.914 1523.68 865.968 1527.53 868.143C1530.45 869.793 1529.65 872.176 1528.88 872.539C1528.17 872.778 1527.33 872.887 1526.5 872.845C1530.53 873.507 1534.46 874.42 1538.15 875.606C1536.71 874.819 1535.81 873.791 1535.57 872.649C1534.88 868.973 1539.56 865.38 1539.56 865.38C1539.56 865.38 1545.44 867.873 1546.09 871.574C1546.62 874.414 1542.9 876.561 1541.67 876.688C1541.49 876.684 1541.27 876.705 1541.1 876.651C1549.83 879.858 1556.5 884.615 1560.19 890.196C1559.53 888.693 1559.89 887.134 1561.15 885.77C1564.9 881.704 1573.51 879.655 1573.51 879.655C1573.51 879.655 1575.9 884.275 1572.15 888.342Z" fill="#A8E8C1"/>
<path d="M1567.57 895.969C1563.09 898.53 1563.72 901.852 1564.74 902.378C1565.75 902.903 1571.95 903.079 1576.49 900.494C1582.38 897.127 1582.77 892.084 1582.77 892.084C1582.77 892.084 1573.51 892.629 1567.57 895.969Z" fill="#A8E8C1"/>
<path d="M1540.52 920.231C1544.15 922.374 1549.92 921.924 1550.96 921.408C1551.99 920.893 1553.23 917.782 1549.56 915.662C1544.76 912.844 1536.31 912.84 1536.31 912.84C1536.31 912.84 1535.73 917.413 1540.52 920.231Z" fill="#A8E8C1"/>
<path d="M1548.36 875.567C1547.49 879.01 1551.82 881.32 1553.3 881.4C1554.74 881.455 1560.15 879.569 1560.97 876.15C1562.07 871.651 1556.76 867.68 1556.76 867.68C1556.76 867.68 1549.46 871.068 1548.36 875.567Z" fill="#A8E8C1"/>
<path d="M1417.81 940.097C1417.81 940.097 1413.9 944.018 1415.18 947.878C1416.17 950.867 1420.58 952.148 1421.7 951.978C1422.81 951.809 1426.03 949.453 1425.04 946.465C1423.85 942.599 1417.81 940.097 1417.81 940.097Z" fill="#A8E8C1"/>
<path d="M1457.82 953.543C1453.05 950.811 1445.65 950.754 1445.65 950.754C1445.65 950.754 1446.11 955.197 1450.88 957.93C1454.52 960.045 1459.42 959.62 1460.25 959.137C1461.04 958.632 1461.47 955.659 1457.82 953.543Z" fill="#A8E8C1"/>
<path d="M1437.25 967.238C1442.71 965.483 1444.07 961.915 1443.45 961.143C1442.94 960.723 1442.14 960.436 1441.3 960.276C1442.45 960.506 1443.64 960.709 1444.79 960.888C1455.09 962.374 1465.93 962.002 1475.88 959.878C1474.95 960.504 1474.25 961.201 1473.73 961.945C1470.63 966.485 1473.65 971.532 1473.65 971.532C1473.65 971.532 1481.74 969.092 1484.79 964.528C1486.88 961.451 1484.96 958.657 1483.55 957.851C1487.55 956.581 1491.31 955.038 1494.71 953.249C1493.93 954.1 1493.46 955.07 1493.26 956.036C1492.5 960.907 1497.92 965.046 1497.92 965.046C1497.92 965.046 1504.52 961.22 1505.28 956.399C1505.84 952.695 1501.62 950.276 1500.22 950.254C1500.04 950.258 1499.91 950.286 1499.78 950.314C1502.1 948.774 1504.15 947.14 1506.01 945.407C1505.69 945.085 1505.4 944.737 1505.03 944.39C1498.79 950.561 1489.23 955.434 1477.88 958.27C1478.8 957.492 1479.29 953.992 1475.11 951.598C1469.53 948.348 1460.68 948.426 1460.68 948.426C1460.68 948.426 1461.06 953.856 1466.64 957.106C1468.96 958.451 1472.15 959.094 1475.42 958.851C1465.73 960.919 1455.24 961.283 1445.21 959.843C1442.82 959.486 1440.52 959.027 1438.25 958.492C1439.09 958.652 1439.93 958.66 1440.75 958.517C1441.78 958.142 1443.79 955.218 1441.39 952.459C1438.19 948.882 1431.06 947.534 1431.06 947.534C1431.06 947.534 1429.1 952.101 1432.3 955.678C1433.05 956.523 1434.19 957.284 1435.58 957.787C1424.48 954.598 1415.65 949.213 1410.7 942.636C1413.43 942.151 1415.5 940.92 1416.32 939.36C1418.22 936.034 1415.73 932.543 1415.73 932.543C1415.73 932.543 1410.11 934.504 1408.26 937.804C1408.14 938.034 1408.06 938.238 1407.99 938.442C1407.44 937.315 1406.97 936.186 1406.6 935.005C1408.77 933.975 1410.03 932.457 1409.98 930.864C1409.99 927.399 1405.66 924.68 1405.66 924.68C1405.66 924.68 1401.37 927.65 1401.37 931.115C1401.29 932.685 1402.6 934.176 1404.8 935.067C1405.08 935.946 1405.39 936.8 1405.75 937.627C1405.42 937.255 1404.96 936.91 1404.42 936.617C1400.34 934.373 1393.99 934.527 1393.99 934.527C1393.99 934.527 1394.45 938.388 1398.49 940.658C1401.61 942.39 1405.79 941.901 1406.46 941.432C1406.83 940.995 1406.97 940.486 1406.9 940.007C1408.32 942.431 1410.17 944.746 1412.45 946.951C1410.95 946.096 1409.03 945.553 1407.01 945.442C1400.33 945.072 1394.15 947.903 1394.15 947.903C1394.15 947.903 1398.92 951.398 1405.6 951.769C1410.7 952.07 1414.37 949.795 1414.59 949.082C1414.59 948.981 1414.58 948.83 1414.53 948.755C1420.72 953.941 1429.58 957.883 1439.83 960.028C1437.14 959.652 1434.31 959.887 1431.9 960.644C1424.81 962.937 1421.53 968.062 1421.53 968.062C1421.53 968.062 1430.12 969.507 1437.25 967.238Z" fill="#A8E8C1"/>
<path d="M1446.74 973.962C1446.74 973.962 1455.26 973.163 1460.54 969.514C1464.55 966.703 1463.8 963.319 1462.87 962.792C1461.9 962.292 1456.23 962.307 1452.16 965.096C1446.89 968.745 1446.74 973.962 1446.74 973.962Z" fill="#A8E8C1"/>
<path d="M1401.49 960.901C1401.49 960.901 1408.75 963.507 1416.33 962.41C1422.12 961.575 1424.89 958.408 1424.65 957.61C1424.42 956.811 1420.06 954.637 1414.27 955.473C1406.73 956.542 1401.49 960.901 1401.49 960.901Z" fill="#A8E8C1"/>
<path d="M1472.02 844.046C1467.29 844.4 1462.61 844.98 1458.02 845.713C1443.72 848.213 1423.12 853.238 1405.27 863.086L1398.8 866.823C1369.06 884.752 1364.69 907.579 1364.69 907.579C1364.69 907.579 1399.46 928.816 1415.68 936.619C1431.91 944.421 1445.38 947.553 1474.77 951.239C1498.92 954.27 1532.24 950.684 1543.4 949.295C1544.23 947.3 1553.76 923.816 1547.6 907.579C1541.17 890.635 1535.79 882.833 1522.27 873.464C1508.8 864.121 1472.02 844.046 1472.02 844.046ZM1516.59 877.454C1528.26 885.56 1533.16 892.226 1539.29 908.488C1543.27 918.917 1539.64 934.144 1536.75 942.73C1535.57 942.856 1534.34 943.007 1532.99 943.134C1532.94 943.209 1532.9 943.285 1532.94 943.361C1528.7 943.841 1522.88 944.422 1516.32 944.927C1498.96 946.214 1484.22 946.189 1473.64 944.825C1445.43 941.265 1433.88 938.437 1419.88 931.72C1407.72 925.861 1384.02 911.721 1374.31 905.862C1376.63 899.474 1383.89 884.626 1403.96 872.479L1410.22 868.868C1427.84 859.147 1448.75 854.652 1461.61 852.632C1465.72 851.925 1469.22 851.42 1471.89 851.091C1481.99 856.722 1506.48 870.409 1516.59 877.454Z" fill="#17D892"/>
<path d="M1365.08 907.352C1365.08 907.352 1399.85 928.589 1416.08 936.392C1432.3 944.194 1445.99 946.795 1475.17 951.012C1479.76 951.694 1484.66 952.957 1471.32 951.669C1441.66 948.79 1428.46 944.851 1412.23 937.048C1396 929.245 1361.23 908.009 1361.23 908.009C1361.23 908.009 1365.65 885.206 1395.35 867.253L1401.82 863.515C1421.33 852.758 1444.11 847.733 1458.37 845.511C1444.07 848.011 1423.47 853.036 1405.62 862.884L1399.2 866.596C1369.5 884.55 1365.08 907.352 1365.08 907.352Z" fill="white"/>
<path d="M1515.89 876.04C1527.74 884.246 1533.73 890.837 1539.72 908.64C1543.66 919.245 1539.85 934.775 1536.79 943.563C1535.61 943.689 1534.3 943.84 1532.99 943.992C1536.05 935.204 1538.85 919.952 1535.83 909.321C1531.54 894.322 1526.08 886.418 1513.35 877.555C1494.89 864.676 1465.33 851.091 1465.33 851.091C1465.33 851.091 1470.22 850.182 1471.97 850.182C1482.21 855.838 1505.65 868.919 1515.89 876.04Z" fill="white"/>
<path d="M1401.83 863.543C1366.05 882.431 1361.28 908.011 1361.28 908.011C1361.28 908.011 1403.32 936.571 1433.45 945.081C1481.69 958.691 1543.62 949.247 1543.62 949.247C1543.62 949.247 1559.94 913.567 1536.32 885.689C1521.58 868.29 1472.11 844.024 1472.11 844.024C1472.11 844.024 1427.76 846.801 1395.01 867.482" stroke="#20BA82" stroke-width="1.5151" stroke-miterlimit="10"/>
<path d="M1533.21 943.058C1533.21 943.058 1544.84 915.988 1527.96 891.898C1527.96 891.898 1522.36 883.06 1507.97 873.894C1493.58 864.727 1468.65 851.394 1468.65 851.394C1468.65 851.394 1434.8 854.98 1410.83 868.515L1403.92 872.505C1380.48 886.343 1374.27 905.888 1374.27 905.888C1374.27 905.888 1397.27 920.281 1413.23 928.589C1429.16 936.922 1444.42 940.129 1444.42 940.129C1486.14 949.876 1533.03 943.159 1533.03 943.159L1533.21 943.058Z" stroke="#20BA82" stroke-width="1.5151" stroke-miterlimit="10"/>
</g>
<path d="M1470.34 887.408C1474.4 889.708 1476.81 892.809 1477.09 896.091C1477.33 899.288 1479.5 902.336 1483.22 904.706C1483.27 904.732 1483.31 904.754 1483.36 904.782C1483.53 904.885 1483.72 904.993 1483.91 905.101L1492.3 909.948C1492.78 910.225 1493.05 910.602 1493.05 910.994C1493.05 911.385 1492.78 911.761 1492.3 912.038L1481.13 918.487C1480.65 918.764 1480 918.92 1479.32 918.92C1478.64 918.92 1477.99 918.764 1477.51 918.487L1469.23 913.707C1469 913.573 1468.79 913.455 1468.55 913.314C1468.5 913.29 1468.46 913.265 1468.42 913.239C1464.32 911.126 1459.06 909.914 1453.56 909.814C1449.88 909.732 1446.29 909.132 1443.1 908.068C1439.91 907.004 1437.21 905.507 1435.25 903.707C1433.29 901.907 1432.11 899.857 1431.83 897.736C1431.55 895.615 1432.16 893.486 1433.62 891.533C1435.09 889.58 1437.35 887.862 1440.22 886.528C1443.09 885.194 1446.48 884.284 1450.1 883.877C1453.72 883.469 1457.45 883.577 1460.98 884.19C1464.51 884.803 1467.72 885.903 1470.35 887.395L1470.34 887.408Z" fill="white"/>
<path d="M1472.03 888.384C1475.86 890.545 1478.18 893.444 1478.55 896.529C1478.89 899.536 1480.99 902.386 1484.51 904.611C1484.55 904.633 1484.59 904.656 1484.64 904.681C1484.81 904.782 1484.98 904.883 1485.16 904.986L1493.12 909.578C1493.57 909.831 1493.83 910.179 1493.84 910.543C1493.85 910.908 1493.61 911.26 1493.17 911.523L1482.96 917.42C1482.5 917.674 1481.89 917.812 1481.26 917.806C1480.63 917.8 1480.03 917.65 1479.59 917.388L1471.75 912.859C1471.53 912.733 1471.31 912.607 1471.1 912.486C1471.06 912.464 1471.02 912.441 1470.98 912.416C1467.13 910.418 1462.22 909.242 1457.05 909.085C1451.67 908.909 1446.6 907.592 1442.8 905.388C1434.29 900.472 1434.17 892.596 1442.62 887.944C1450.7 883.51 1463.81 883.709 1472.03 888.384Z" fill="#A8E8C1"/>
<path d="M1483.34 904.779C1483.52 904.883 1483.71 904.991 1483.9 905.099L1492.29 909.945C1492.71 910.193 1492.97 910.519 1493.02 910.866C1493.07 911.213 1492.91 911.56 1492.56 911.845C1492.48 911.913 1492.39 911.977 1492.28 912.036L1490.69 912.954C1491.78 913.58 1492.39 914.428 1492.39 915.312C1492.39 916.196 1491.78 917.044 1490.69 917.67C1489.61 918.295 1488.14 918.646 1486.61 918.646C1485.08 918.646 1483.61 918.295 1482.53 917.67L1481.12 918.482C1481.02 918.541 1480.91 918.595 1480.79 918.643C1480.3 918.844 1479.7 918.938 1479.09 918.908C1478.49 918.879 1477.93 918.728 1477.5 918.482L1469.22 913.702C1468.99 913.568 1468.79 913.45 1468.54 913.309L1483.34 904.779Z" fill="#17D892"/>
<path d="M1492.57 911.857C1492.48 911.926 1492.39 911.99 1492.29 912.049L1490.7 912.967C1491.78 913.592 1492.39 914.44 1492.39 915.325C1492.39 916.209 1491.78 917.057 1490.7 917.682C1489.62 918.307 1488.15 918.659 1486.61 918.659C1485.08 918.659 1483.61 918.307 1482.53 917.682L1481.13 918.49C1481.03 918.549 1480.92 918.603 1480.8 918.651L1492.57 911.857Z" fill="#17D892"/>
<path d="M1492.93 912.419L1481.77 918.86C1481.12 919.237 1480.23 919.449 1479.31 919.449C1478.39 919.449 1477.5 919.237 1476.85 918.86L1468.57 914.079C1468.35 913.956 1468.13 913.828 1467.93 913.712C1467.88 913.679 1467.82 913.647 1467.76 913.611C1467.58 913.511 1467.49 913.375 1467.49 913.234C1467.49 913.092 1467.58 912.957 1467.76 912.856C1467.93 912.756 1468.17 912.7 1468.41 912.7C1468.66 912.7 1468.89 912.756 1469.06 912.856L1469.13 912.892C1469.13 912.892 1469.16 912.912 1469.17 912.917C1469.4 913.053 1469.64 913.186 1469.88 913.324L1478.16 918.105C1478.46 918.282 1478.88 918.381 1479.31 918.381C1479.74 918.381 1480.16 918.282 1480.47 918.105L1491.62 911.664C1491.93 911.487 1492.1 911.247 1492.1 910.996C1492.1 910.746 1491.93 910.505 1491.63 910.328L1483.23 905.482C1483.05 905.373 1482.86 905.265 1482.67 905.157C1482.64 905.14 1482.6 905.121 1482.57 905.102L1482.53 905.074C1478.66 902.609 1476.41 899.443 1476.15 896.122C1475.88 892.971 1473.57 889.995 1469.66 887.788C1465.62 885.522 1460.21 884.243 1454.57 884.218C1448.94 884.193 1443.5 885.423 1439.39 887.652C1437.78 888.535 1436.41 889.556 1435.34 890.679C1435.29 890.744 1435.21 890.801 1435.11 890.848C1435.02 890.894 1434.91 890.929 1434.79 890.951C1434.67 890.972 1434.54 890.98 1434.42 890.972C1434.3 890.965 1434.18 890.943 1434.07 890.909C1433.96 890.874 1433.86 890.826 1433.79 890.77C1433.71 890.713 1433.65 890.648 1433.62 890.578C1433.59 890.508 1433.58 890.436 1433.6 890.365C1433.62 890.293 1433.66 890.225 1433.73 890.163C1436.21 887.567 1440.08 885.508 1444.77 884.3C1449.46 883.091 1454.71 882.798 1459.71 883.465C1464.72 884.132 1469.21 885.723 1472.5 887.997C1475.8 890.27 1477.72 893.102 1477.98 896.064C1478.22 899.136 1480.3 902.064 1483.88 904.344C1483.9 904.356 1483.92 904.369 1483.94 904.382L1483.99 904.41C1484.18 904.518 1484.36 904.621 1484.53 904.722L1492.93 909.568C1493.25 909.755 1493.51 909.977 1493.68 910.221C1493.86 910.466 1493.95 910.728 1493.95 910.993C1493.95 911.258 1493.86 911.52 1493.69 911.764C1493.51 912.009 1493.25 912.231 1492.93 912.419V912.419Z" fill="#20BA82"/>
<path d="M1432.46 896.096C1432.37 896.151 1432.26 896.193 1432.13 896.22C1432.01 896.246 1431.87 896.256 1431.74 896.25C1431.62 896.245 1431.5 896.226 1431.4 896.194C1431.29 896.163 1431.19 896.119 1431.11 896.066C1431.03 896.013 1430.97 895.951 1430.93 895.885C1430.9 895.818 1430.88 895.748 1430.89 895.678L1430.93 895.427C1430.96 895.29 1431.08 895.166 1431.27 895.081C1431.46 894.995 1431.69 894.955 1431.93 894.968C1432.17 894.981 1432.39 895.046 1432.54 895.151C1432.7 895.255 1432.78 895.39 1432.77 895.527L1432.73 895.759C1432.71 895.886 1432.62 896.006 1432.46 896.096V896.096Z" fill="#20BA82"/>
<path d="M1465.32 912.051C1465.17 912.134 1464.98 912.188 1464.78 912.203C1464.58 912.218 1464.37 912.194 1464.2 912.134C1460.94 911.046 1457.27 910.437 1453.52 910.36C1447.79 910.234 1442.34 908.91 1438.19 906.635C1434.03 904.361 1431.45 901.291 1430.92 897.998C1430.91 897.929 1430.92 897.858 1430.96 897.791C1430.99 897.724 1431.05 897.662 1431.13 897.608C1431.21 897.554 1431.3 897.509 1431.41 897.476C1431.52 897.444 1431.63 897.424 1431.76 897.417C1431.88 897.411 1432 897.418 1432.11 897.439C1432.23 897.46 1432.34 897.494 1432.43 897.538C1432.53 897.583 1432.6 897.638 1432.66 897.7C1432.72 897.762 1432.75 897.83 1432.76 897.9C1433.25 900.936 1435.63 903.766 1439.46 905.862C1443.29 907.959 1448.31 909.179 1453.59 909.296C1457.65 909.379 1461.61 910.038 1465.13 911.213C1465.34 911.285 1465.49 911.402 1465.56 911.539C1465.62 911.675 1465.58 911.821 1465.46 911.943C1465.42 911.982 1465.37 912.018 1465.32 912.051Z" fill="#20BA82"/>
<path d="M1491.33 918.054C1490.71 918.413 1489.97 918.698 1489.16 918.891C1488.34 919.085 1487.47 919.184 1486.59 919.183C1485.71 919.182 1484.84 919.081 1484.02 918.886C1483.21 918.691 1482.47 918.405 1481.85 918.044C1481.68 917.944 1481.58 917.809 1481.58 917.667C1481.58 917.525 1481.68 917.39 1481.85 917.29L1490.02 912.574C1490.19 912.474 1490.43 912.418 1490.67 912.418C1490.92 912.418 1491.15 912.474 1491.33 912.574C1491.95 912.934 1492.44 913.361 1492.78 913.831C1493.12 914.301 1493.3 914.804 1493.3 915.313C1493.3 915.822 1493.12 916.326 1492.79 916.797C1492.45 917.267 1491.96 917.694 1491.33 918.054V918.054ZM1483.89 917.639C1484.82 918 1485.94 918.163 1487.06 918.1C1488.18 918.037 1489.23 917.751 1490.02 917.292C1490.82 916.833 1491.31 916.229 1491.42 915.583C1491.53 914.937 1491.25 914.289 1490.62 913.749L1483.89 917.639Z" fill="#20BA82"/>
<path d="M1483.87 905.079L1471.53 912.204C1471.35 912.304 1471.12 912.361 1470.87 912.361C1470.63 912.361 1470.39 912.304 1470.22 912.204C1470.05 912.104 1469.95 911.968 1469.95 911.827C1469.95 911.685 1470.05 911.55 1470.22 911.449L1482.56 904.324C1482.74 904.224 1482.97 904.167 1483.22 904.167C1483.46 904.167 1483.7 904.224 1483.87 904.324C1484.04 904.424 1484.14 904.56 1484.14 904.701C1484.14 904.843 1484.04 904.979 1483.87 905.079V905.079Z" fill="#20BA82"/>
<path d="M1486.5 909.955L1484.7 910.994C1484.53 911.094 1484.29 911.151 1484.05 911.151C1483.8 911.151 1483.57 911.094 1483.39 910.994C1483.22 910.894 1483.12 910.758 1483.12 910.617C1483.12 910.475 1483.22 910.339 1483.39 910.239L1485.19 909.2C1485.37 909.1 1485.6 909.044 1485.85 909.044C1486.09 909.044 1486.33 909.1 1486.5 909.2C1486.67 909.3 1486.77 909.436 1486.77 909.578C1486.77 909.719 1486.67 909.855 1486.5 909.955Z" fill="#20BA82"/>
<path d="M1481.35 912.927L1474.64 916.804C1474.47 916.904 1474.23 916.961 1473.99 916.961C1473.74 916.961 1473.5 916.904 1473.33 916.804C1473.16 916.704 1473.06 916.568 1473.06 916.427C1473.06 916.285 1473.16 916.149 1473.33 916.049L1480.07 912.159C1480.24 912.059 1480.48 912.003 1480.72 912.003C1480.97 912.003 1481.2 912.059 1481.38 912.159C1481.55 912.259 1481.65 912.395 1481.65 912.537C1481.65 912.678 1481.55 912.814 1481.38 912.914L1481.35 912.927Z" fill="#20BA82"/>
<path d="M1447.88 904.88C1447.74 904.962 1447.55 905.015 1447.35 905.031C1447.15 905.047 1446.95 905.025 1446.77 904.968L1446.63 904.915C1446.53 904.88 1446.43 904.833 1446.36 904.778C1446.29 904.722 1446.23 904.658 1446.2 904.591C1446.17 904.523 1446.17 904.453 1446.18 904.384C1446.2 904.315 1446.24 904.248 1446.3 904.188C1446.43 904.066 1446.63 903.977 1446.87 903.941C1447.1 903.906 1447.35 903.926 1447.57 903.997L1447.69 904.037C1447.79 904.072 1447.89 904.118 1447.96 904.173C1448.04 904.228 1448.09 904.292 1448.12 904.359C1448.16 904.427 1448.16 904.497 1448.15 904.567C1448.13 904.637 1448.09 904.704 1448.03 904.764C1447.99 904.807 1447.94 904.846 1447.88 904.88V904.88Z" fill="#20BA82"/>
<path d="M1444.44 903.37C1444.27 903.47 1444.03 903.527 1443.79 903.527C1443.54 903.527 1443.31 903.47 1443.13 903.37C1440.12 901.637 1438.33 899.323 1438.09 896.873C1437.85 894.422 1439.19 892.007 1441.84 890.09C1442 889.979 1442.22 889.908 1442.47 889.892C1442.71 889.877 1442.96 889.918 1443.15 890.007C1443.34 890.096 1443.47 890.226 1443.49 890.367C1443.52 890.509 1443.45 890.651 1443.3 890.762C1440.92 892.473 1439.73 894.629 1439.94 896.817C1440.16 899.005 1441.76 901.071 1444.45 902.618C1444.62 902.718 1444.71 902.854 1444.71 902.995C1444.71 903.136 1444.61 903.271 1444.44 903.37V903.37Z" fill="#20BA82"/>
<path d="M1434.99 884.794C1434.82 884.894 1434.58 884.95 1434.34 884.95C1434.09 884.95 1433.86 884.894 1433.68 884.794L1428.77 881.96C1428.6 881.86 1428.5 881.725 1428.5 881.583C1428.5 881.441 1428.6 881.306 1428.77 881.206C1428.95 881.105 1429.18 881.049 1429.43 881.049C1429.67 881.049 1429.91 881.105 1430.08 881.206L1434.99 884.039C1435.16 884.139 1435.26 884.275 1435.26 884.416C1435.26 884.558 1435.16 884.694 1434.99 884.794V884.794Z" fill="#20BA82"/>
<path d="M1426.33 896.856C1426.16 896.956 1425.93 897.012 1425.68 897.012L1418.71 897.012C1418.58 897.015 1418.46 897.003 1418.34 896.977C1418.23 896.951 1418.12 896.913 1418.03 896.863C1417.94 896.813 1417.87 896.753 1417.82 896.687C1417.78 896.621 1417.75 896.551 1417.75 896.479C1417.75 896.407 1417.78 896.336 1417.82 896.27C1417.87 896.204 1417.94 896.145 1418.03 896.095C1418.12 896.045 1418.23 896.006 1418.34 895.98C1418.46 895.955 1418.58 895.943 1418.71 895.945L1425.68 895.945C1425.8 895.945 1425.92 895.958 1426.03 895.985C1426.15 896.012 1426.25 896.051 1426.34 896.101C1426.42 896.15 1426.49 896.209 1426.54 896.274C1426.58 896.339 1426.6 896.409 1426.6 896.479C1426.6 896.62 1426.51 896.756 1426.33 896.856V896.856Z" fill="#20BA82"/>
<path d="M1492.39 896.861C1492.22 896.961 1491.99 897.017 1491.74 897.017L1484.77 897.017C1484.64 897.02 1484.52 897.008 1484.4 896.982C1484.29 896.957 1484.18 896.918 1484.09 896.868C1484 896.818 1483.93 896.758 1483.88 896.692C1483.84 896.627 1483.81 896.556 1483.81 896.484C1483.81 896.412 1483.84 896.341 1483.88 896.275C1483.93 896.209 1484 896.15 1484.09 896.1C1484.18 896.05 1484.29 896.011 1484.4 895.985C1484.52 895.96 1484.64 895.948 1484.77 895.95L1491.74 895.95C1491.86 895.95 1491.98 895.964 1492.09 895.99C1492.21 896.017 1492.31 896.056 1492.4 896.106C1492.48 896.155 1492.55 896.214 1492.6 896.279C1492.64 896.344 1492.66 896.414 1492.66 896.484C1492.66 896.625 1492.57 896.761 1492.39 896.861V896.861Z" fill="#20BA82"/>
<path d="M1434.99 908.919L1430.08 911.752C1429.91 911.852 1429.67 911.908 1429.43 911.908C1429.18 911.908 1428.95 911.852 1428.77 911.752C1428.6 911.652 1428.5 911.516 1428.5 911.374C1428.5 911.233 1428.6 911.097 1428.77 910.997L1433.68 908.164C1433.86 908.064 1434.09 908.007 1434.34 908.007C1434.58 908.007 1434.82 908.064 1434.99 908.164C1435.16 908.264 1435.26 908.4 1435.26 908.541C1435.26 908.683 1435.16 908.818 1434.99 908.919V908.919Z" fill="#20BA82"/>
<path d="M1481.68 881.96L1476.77 884.794C1476.6 884.894 1476.37 884.95 1476.12 884.95C1475.88 884.95 1475.64 884.894 1475.47 884.794C1475.29 884.694 1475.2 884.558 1475.2 884.416C1475.2 884.275 1475.29 884.139 1475.47 884.039L1480.37 881.206C1480.55 881.106 1480.78 881.049 1481.03 881.049C1481.27 881.049 1481.51 881.106 1481.68 881.206C1481.85 881.306 1481.95 881.441 1481.95 881.583C1481.95 881.725 1481.85 881.86 1481.68 881.96V881.96Z" fill="#20BA82"/>
<path d="M1455.9 917.932C1455.77 918.006 1455.61 918.057 1455.43 918.077C1455.25 918.098 1455.06 918.087 1454.89 918.047C1454.72 918.006 1454.58 917.938 1454.48 917.85C1454.38 917.763 1454.32 917.66 1454.32 917.554L1454.32 913.528C1454.32 913.457 1454.34 913.385 1454.38 913.318C1454.43 913.251 1454.49 913.19 1454.58 913.139C1454.67 913.087 1454.77 913.046 1454.88 913.018C1455 912.99 1455.12 912.976 1455.25 912.976C1455.37 912.976 1455.49 912.99 1455.61 913.018C1455.72 913.046 1455.82 913.087 1455.91 913.139C1456 913.19 1456.06 913.251 1456.11 913.318C1456.15 913.385 1456.17 913.457 1456.17 913.528L1456.17 917.554C1456.17 917.696 1456.07 917.831 1455.9 917.932V917.932Z" fill="#20BA82"/>
<path d="M1455.87 879.802C1455.74 879.876 1455.58 879.927 1455.4 879.948C1455.22 879.968 1455.03 879.958 1454.87 879.917C1454.7 879.877 1454.55 879.808 1454.45 879.721C1454.35 879.633 1454.3 879.53 1454.3 879.424L1454.3 875.399C1454.29 875.327 1454.31 875.255 1454.36 875.189C1454.4 875.122 1454.47 875.06 1454.55 875.009C1454.64 874.957 1454.74 874.916 1454.86 874.888C1454.97 874.86 1455.1 874.846 1455.22 874.846C1455.34 874.846 1455.47 874.86 1455.58 874.888C1455.69 874.916 1455.8 874.957 1455.88 875.009C1455.97 875.061 1456.04 875.122 1456.08 875.189C1456.13 875.255 1456.15 875.327 1456.14 875.398L1456.14 879.424C1456.14 879.566 1456.04 879.701 1455.87 879.802V879.802Z" fill="#20BA82"/>
</g>
<defs>
<linearGradient id="paint0_linear" x1="4.75278" y1="2.75277" x2="104.975" y2="239.068" gradientUnits="userSpaceOnUse">
<stop stop-color="#333333" stop-opacity="0.15"/>
<stop offset="1" stop-color="#333333" stop-opacity="0.15"/>
</linearGradient>
<linearGradient id="paint1_linear" x1="195" y1="879" x2="179" y2="879" gradientUnits="userSpaceOnUse">
<stop stop-color="#999999"/>
<stop offset="1" stop-color="#EEEEEE"/>
</linearGradient>
<linearGradient id="paint2_linear" x1="4.75278" y1="2.75277" x2="104.975" y2="239.068" gradientUnits="userSpaceOnUse">
<stop stop-color="#333333" stop-opacity="0.15"/>
<stop offset="1" stop-color="#333333" stop-opacity="0.15"/>
</linearGradient>
<linearGradient id="paint3_linear" x1="672" y1="604" x2="656" y2="604" gradientUnits="userSpaceOnUse">
<stop stop-color="#1D8D65"/>
<stop offset="1" stop-color="#20BA82"/>
</linearGradient>
<linearGradient id="paint4_linear" x1="4.75278" y1="2.75277" x2="104.975" y2="239.068" gradientUnits="userSpaceOnUse">
<stop stop-color="#333333" stop-opacity="0.15"/>
<stop offset="1" stop-color="#333333" stop-opacity="0.15"/>
</linearGradient>
<linearGradient id="paint5_linear" x1="910" y1="465" x2="894" y2="465" gradientUnits="userSpaceOnUse">
<stop stop-color="#999999"/>
<stop offset="1" stop-color="#EEEEEE"/>
</linearGradient>
<linearGradient id="paint6_linear" x1="4.75278" y1="2.75277" x2="104.975" y2="239.068" gradientUnits="userSpaceOnUse">
<stop stop-color="#333333" stop-opacity="0.15"/>
<stop offset="1" stop-color="#333333" stop-opacity="0.15"/>
</linearGradient>
<linearGradient id="paint7_linear" x1="1148" y1="329" x2="1132" y2="329" gradientUnits="userSpaceOnUse">
<stop stop-color="#999999"/>
<stop offset="1" stop-color="#EEEEEE"/>
</linearGradient>
<linearGradient id="paint8_linear" x1="4.75278" y1="2.75277" x2="104.975" y2="239.068" gradientUnits="userSpaceOnUse">
<stop stop-color="#333333" stop-opacity="0.15"/>
<stop offset="1" stop-color="#333333" stop-opacity="0.15"/>
</linearGradient>
<linearGradient id="paint9_linear" x1="1386" y1="191" x2="1370" y2="191" gradientUnits="userSpaceOnUse">
<stop stop-color="#999999"/>
<stop offset="1" stop-color="#EEEEEE"/>
</linearGradient>
<linearGradient id="paint10_linear" x1="47.1588" y1="-85.8412" x2="104.04" y2="72.9701" gradientUnits="userSpaceOnUse">
<stop stop-color="#333333" stop-opacity="0.15"/>
<stop offset="1" stop-color="#333333" stop-opacity="0.15"/>
</linearGradient>
<linearGradient id="paint11_linear" x1="697.5" y1="873" x2="722.5" y2="873" gradientUnits="userSpaceOnUse">
<stop stop-color="#20BA82"/>
<stop offset="1" stop-color="#1D8D65"/>
</linearGradient>
<linearGradient id="paint12_linear" x1="47.1588" y1="-85.8412" x2="104.04" y2="72.9701" gradientUnits="userSpaceOnUse">
<stop stop-color="#333333" stop-opacity="0.15"/>
<stop offset="1" stop-color="#333333" stop-opacity="0.15"/>
</linearGradient>
<linearGradient id="paint13_linear" x1="934.5" y1="735" x2="959.5" y2="735" gradientUnits="userSpaceOnUse">
<stop stop-color="#20BA82"/>
<stop offset="1" stop-color="#1D8D65"/>
</linearGradient>
<linearGradient id="paint14_linear" x1="36.2002" y1="-66.7998" x2="96.8379" y2="77.6259" gradientUnits="userSpaceOnUse">
<stop stop-color="#333333" stop-opacity="0.15"/>
<stop offset="1" stop-color="#333333" stop-opacity="0.15"/>
</linearGradient>
<linearGradient id="paint15_linear" x1="482.5" y1="1018.5" x2="466.5" y2="1018.5" gradientUnits="userSpaceOnUse">
<stop stop-color="#999999"/>
<stop offset="1" stop-color="#EEEEEE"/>
</linearGradient>
<linearGradient id="paint16_linear" x1="34.4889" y1="-64.5111" x2="95.7339" y2="78.3925" gradientUnits="userSpaceOnUse">
<stop stop-color="#333333" stop-opacity="0.15"/>
<stop offset="1" stop-color="#333333" stop-opacity="0.15"/>
</linearGradient>
<linearGradient id="paint17_linear" x1="1196" y1="609" x2="1183.5" y2="609" gradientUnits="userSpaceOnUse">
<stop stop-color="#999999"/>
<stop offset="1" stop-color="#EEEEEE"/>
</linearGradient>
<linearGradient id="paint18_linear" x1="25.8397" y1="-43.1603" x2="88.8722" y2="84.1092" gradientUnits="userSpaceOnUse">
<stop stop-color="#333333" stop-opacity="0.15"/>
<stop offset="1" stop-color="#333333" stop-opacity="0.15"/>
</linearGradient>
<linearGradient id="paint19_linear" x1="1434" y1="477.5" x2="1422.5" y2="477.5" gradientUnits="userSpaceOnUse">
<stop stop-color="#999999"/>
<stop offset="1" stop-color="#EEEEEE"/>
</linearGradient>
<linearGradient id="paint20_linear" x1="44.4889" y1="-74.5111" x2="101.19" y2="73.5218" gradientUnits="userSpaceOnUse">
<stop stop-color="#333333" stop-opacity="0.15"/>
<stop offset="1" stop-color="#333333" stop-opacity="0.15"/>
<stop offset="1" stop-color="#333333" stop-opacity="0"/>
</linearGradient>
<linearGradient id="paint21_linear" x1="1674" y1="332" x2="1656.5" y2="332" gradientUnits="userSpaceOnUse">
<stop stop-color="#999999"/>
<stop offset="1" stop-color="#EEEEEE"/>
</linearGradient>
<linearGradient id="paint22_linear" x1="94.3268" y1="-161.299" x2="240.068" y2="287.699" gradientUnits="userSpaceOnUse">
<stop stop-color="#333333" stop-opacity="0.15"/>
<stop offset="1" stop-color="#333333" stop-opacity="0.15"/>
</linearGradient>
<linearGradient id="paint23_linear" x1="1455.39" y1="1060.74" x2="1482.62" y2="1060.74" gradientUnits="userSpaceOnUse">
<stop stop-color="#20BA82"/>
<stop offset="1" stop-color="#1D8D65"/>
</linearGradient>
<linearGradient id="paint24_linear" x1="94.3268" y1="-161.299" x2="240.068" y2="287.699" gradientUnits="userSpaceOnUse">
<stop stop-color="#333333" stop-opacity="0.15"/>
<stop offset="1" stop-color="#333333" stop-opacity="0.15"/>
</linearGradient>
<linearGradient id="paint25_linear" x1="1455.39" y1="1060.74" x2="1482.62" y2="1060.74" gradientUnits="userSpaceOnUse">
<stop stop-color="#20BA82"/>
<stop offset="1" stop-color="#1D8D65"/>
</linearGradient>
<linearGradient id="paint26_linear" x1="4.75278" y1="2.75277" x2="104.975" y2="239.068" gradientUnits="userSpaceOnUse">
<stop stop-color="#333333" stop-opacity="0.15"/>
<stop offset="1" stop-color="#333333" stop-opacity="0.15"/>
</linearGradient>
<linearGradient id="paint27_linear" x1="433" y1="741" x2="417" y2="741" gradientUnits="userSpaceOnUse">
<stop stop-color="#1D8D65"/>
<stop offset="1" stop-color="#20BA82"/>
</linearGradient>
<linearGradient id="paint28_linear" x1="2046.88" y1="70.5355" x2="1097.01" y2="1715.77" gradientUnits="userSpaceOnUse">
<stop stop-color="white"/>
<stop offset="0.228195" stop-color="white" stop-opacity="0.8"/>
<stop offset="0.404073" stop-color="white" stop-opacity="0"/>
<stop offset="0.729116" stop-color="white" stop-opacity="0"/>
<stop offset="0.816319" stop-color="white" stop-opacity="0.8"/>
<stop offset="1" stop-color="white"/>
</linearGradient>
<clipPath id="clip0">
<rect width="2193.64" height="1239" fill="white"/>
</clipPath>
<clipPath id="clip1">
<rect width="185.953" height="170.247" fill="white" transform="matrix(0.866025 -0.5 0.866025 0.5 1315 911.977)"/>
</clipPath>
</defs>
</svg>
