<svg width="1620" height="966" viewBox="0 0 1620 966" fill="none" xmlns="http://www.w3.org/2000/svg">
<g clip-path="url(#clip0)">
<rect width="1619.96" height="965.07" fill="white"/>
<path d="M261.525 636.424L365.324 576.495C379.673 568.211 402.937 568.211 417.286 576.495L483.104 614.495C497.452 622.78 520.716 622.78 535.065 614.495L622.413 564.065" stroke="#EEEEEE" stroke-width="5"/>
<path d="M661.368 586.555L568.084 640.413C553.735 648.697 553.735 662.128 568.084 670.413L727.449 762.422" stroke="#EEEEEE" stroke-width="5"/>
<path d="M235.3 432.565L294.279 466.617C308.628 474.901 331.892 474.901 346.241 466.617L491.733 382.617C506.082 374.332 529.346 374.332 543.694 382.617L622.413 428.065" stroke="#EEEEEE" stroke-width="5"/>
<path d="M851.809 424.507L953.761 365.645C968.11 357.361 991.374 357.361 1005.72 365.645L1153.08 450.725C1167.43 459.009 1190.7 459.009 1205.05 450.725L1329.13 379.086" stroke="#EEEEEE" stroke-width="5"/>
<path d="M759.423 371.168L945.619 263.668C959.968 255.384 959.968 241.952 945.619 233.668L853.642 180.565" stroke="#EEEEEE" stroke-width="5"/>
<path d="M655.322 409.065L450.589 290.862C437.675 283.406 416.738 283.406 403.824 290.862V290.862C390.91 298.318 369.972 298.318 357.058 290.862L198.461 199.296" stroke="url(#paint0_linear)" stroke-width="5" stroke-dasharray="10 10"/>
<path d="M819 593L1060.27 732.297C1073.18 739.752 1094.12 739.752 1107.03 732.296V732.296C1119.95 724.841 1140.89 724.841 1153.8 732.296L1341.54 840.69" stroke="url(#paint1_linear)" stroke-width="5" stroke-dasharray="10 10"/>
<path d="M866 359.453L1081.09 235.271C1094.37 227.602 1115.91 227.602 1129.19 235.271V235.271C1142.48 242.941 1164.01 242.941 1177.3 235.271L1344.02 139.013" stroke="url(#paint2_linear)" stroke-width="5" stroke-dasharray="10 10"/>
<path d="M892.775 528.646L1018.14 601.027C1032.49 609.311 1055.75 609.311 1070.1 601.027L1175.15 540.38C1189.49 532.096 1212.76 532.096 1227.11 540.38L1384.12 631.031" stroke="#EEEEEE" stroke-width="5"/>
<rect width="200" height="180" rx="10" transform="matrix(0.866025 -0.5 0.866025 0.5 654.866 158.067)" fill="url(#paint3_linear)" fill-opacity="0.8"/>
<path fill-rule="evenodd" clip-rule="evenodd" d="M629.428 143.46C625.599 142.058 622.866 138.381 622.866 134.067V90.0667H702.784L765.138 54.0667C769.921 51.3052 777.675 51.3053 782.458 54.0667L844.812 90.0667H924.866V134.067C924.866 138.507 921.971 142.272 917.966 143.577L782.458 221.812C777.675 224.574 769.921 224.574 765.138 221.812L629.428 143.46Z" fill="url(#paint4_linear)"/>
<rect width="181.133" height="181.133" rx="10" transform="matrix(0.866025 -0.5 0.866025 0.5 617 90.5667)" fill="#FAFAFA"/>
<rect width="200" height="180" rx="10" transform="matrix(0.866025 -0.5 0.866025 0.5 1290.87 357.067)" fill="url(#paint5_linear)" fill-opacity="0.8"/>
<path fill-rule="evenodd" clip-rule="evenodd" d="M1265.43 342.46C1261.6 341.058 1258.87 337.381 1258.87 333.067V289.067H1338.78L1401.14 253.067C1405.92 250.305 1413.68 250.305 1418.46 253.067L1480.81 289.067H1560.87V333.067C1560.87 337.507 1557.97 341.272 1553.97 342.577L1418.46 420.812C1413.68 423.574 1405.92 423.574 1401.14 420.812L1265.43 342.46Z" fill="url(#paint6_linear)"/>
<rect width="181.133" height="181.133" rx="10" transform="matrix(0.866025 -0.5 0.866025 0.5 1253 289.567)" fill="#FAFAFA"/>
<rect width="200" height="180" rx="10" transform="matrix(0.866025 -0.5 0.866025 0.5 1245.89 688.002)" fill="url(#paint7_linear)" fill-opacity="0.8"/>
<path fill-rule="evenodd" clip-rule="evenodd" d="M1220.46 673.395C1216.63 671.993 1213.89 668.316 1213.89 664.002V620.002H1293.81L1356.17 584.002C1360.95 581.24 1368.7 581.24 1373.49 584.002L1435.84 620.002H1515.89V664.002C1515.89 668.443 1513 672.207 1508.99 673.512L1373.49 751.747C1368.7 754.509 1360.95 754.509 1356.17 751.747L1220.46 673.395Z" fill="url(#paint8_linear)"/>
<rect width="181.133" height="181.133" rx="10" transform="matrix(0.866025 -0.5 0.866025 0.5 1208.03 620.502)" fill="#FAFAFA"/>
<rect width="200" height="180" rx="10" transform="matrix(0.866025 -0.5 0.866025 0.5 685.866 875.067)" fill="url(#paint9_linear)" fill-opacity="0.8"/>
<path fill-rule="evenodd" clip-rule="evenodd" d="M660.428 860.46C656.599 859.058 653.866 855.381 653.866 851.067V807.067H733.784L796.138 771.067C800.921 768.305 808.675 768.305 813.458 771.067L875.812 807.067H955.866V851.067C955.866 855.507 952.971 859.272 948.966 860.577L813.458 938.812C808.675 941.574 800.921 941.574 796.138 938.812L660.428 860.46Z" fill="url(#paint10_linear)"/>
<rect width="181.133" height="181.133" rx="10" transform="matrix(0.866025 -0.5 0.866025 0.5 648 807.567)" fill="#FAFAFA"/>
<rect width="200" height="180" rx="10" transform="matrix(0.866025 -0.5 0.866025 0.5 69.8662 751.067)" fill="url(#paint11_linear)" fill-opacity="0.8"/>
<path fill-rule="evenodd" clip-rule="evenodd" d="M44.4279 736.46C40.5989 735.058 37.8662 731.381 37.8662 727.067V683.067H117.784L180.138 647.067C184.921 644.305 192.676 644.305 197.459 647.067L259.812 683.067H339.866V727.067C339.866 731.507 336.972 735.272 332.966 736.577L197.459 814.812C192.676 817.574 184.921 817.574 180.138 814.812L44.4279 736.46Z" fill="url(#paint12_linear)"/>
<rect width="181.133" height="181.133" rx="10" transform="matrix(0.866025 -0.5 0.866025 0.5 32 683.567)" fill="#FAFAFA"/>
<rect width="200" height="180" rx="10" transform="matrix(0.866025 -0.5 0.866025 0.5 37.8662 410.067)" fill="url(#paint13_linear)" fill-opacity="0.8"/>
<path fill-rule="evenodd" clip-rule="evenodd" d="M12.4279 395.46C8.59886 394.058 5.86621 390.381 5.86621 386.067V342.067H85.7843L148.138 306.067C152.921 303.305 160.676 303.305 165.459 306.067L227.812 342.067H307.866V386.067C307.866 390.507 304.972 394.272 300.966 395.577L165.459 473.812C160.676 476.574 152.921 476.574 148.138 473.812L12.4279 395.46Z" fill="url(#paint14_linear)"/>
<rect width="181.133" height="181.133" rx="10" transform="matrix(0.866025 -0.5 0.866025 0.5 0 342.567)" fill="#FAFAFA"/>
<path d="M697.046 71.3944L685.923 101.976L725.825 99.4279L738.184 69.2531L697.046 71.3944ZM721.413 122.466L774.382 116.044L778.088 92.2916L725.825 99.428L721.413 122.466ZM778.088 92.2916L819.229 90.1516L830.352 59.5698L790.449 62.1174L778.088 92.2916Z" fill="#007EE5"/>
<path d="M794.863 39.0801L741.893 45.5015L738.185 69.2531L790.449 62.1174L794.863 39.0801ZM782.181 94.5787L778.354 118.338L762.446 120.266L769.49 124.333L820.86 116.91L833.717 87.2513L826.673 83.1845L823.333 92.3687L782.181 94.5787Z" fill="#007EE5"/>
<path d="M140.841 329.334C149.77 324.179 149.77 315.821 140.841 310.666C131.912 305.511 117.436 305.511 108.507 310.666C99.5785 315.821 99.5785 324.179 108.507 329.334C117.436 334.489 131.912 334.489 140.841 329.334Z" fill="#7B83EB"/>
<path opacity="0.1" d="M126.985 322.666L112.342 331.12L112.737 331.264L112.771 331.276L113.145 331.404C118.244 333.119 124.293 333.631 130.03 332.832C135.766 332.033 140.747 329.986 143.931 327.118L136.22 322.666C134.993 321.962 133.333 321.566 131.602 321.566C129.872 321.566 128.212 321.962 126.985 322.666Z" fill="black"/>
<path opacity="0.2" d="M126.985 326.666L116.994 332.434C121.07 333.273 125.474 333.427 129.695 332.878C133.917 332.329 137.781 331.1 140.841 329.334L136.22 326.666C134.993 325.962 133.333 325.566 131.602 325.566C129.872 325.566 128.212 325.962 126.985 326.666Z" fill="black"/>
<path d="M178.368 309C185.064 305.134 185.064 298.866 178.368 295C171.672 291.134 160.815 291.134 154.119 295C147.423 298.866 147.423 305.134 154.119 309C160.815 312.866 171.671 312.866 178.368 309Z" fill="#5059C9"/>
<path d="M192.224 305L164.993 320.722C164.405 321.061 164.074 321.522 164.074 322.002C164.074 322.482 164.405 322.942 164.992 323.282L193.086 339.502C197.077 341.893 202.37 343.419 208.077 343.826C213.785 344.233 219.562 343.495 224.44 341.736C227.493 340.584 230.063 339.055 231.962 337.258C233.862 335.46 235.044 333.441 235.421 331.347C235.799 329.253 235.363 327.137 234.145 325.153C232.928 323.168 230.959 321.365 228.382 319.876L202.616 305C201.238 304.204 199.369 303.757 197.42 303.757C195.471 303.757 193.602 304.204 192.224 305Z" fill="#5059C9"/>
<path d="M178.367 319L211.276 338C217.378 341.519 221.298 346.102 222.426 351.039C223.555 355.976 221.83 360.99 217.518 365.302C213.207 369.615 206.55 372.986 198.582 374.891C190.613 376.796 181.778 377.13 173.448 375.84C171.674 375.585 169.936 375.25 168.252 374.84C166.669 374.449 165.13 374.002 163.645 373.5C160.808 372.521 158.191 371.346 155.85 370L122.942 351C122.258 350.606 121.716 350.139 121.346 349.624C120.976 349.109 120.785 348.557 120.785 348C120.785 347.442 120.976 346.891 121.346 346.376C121.716 345.861 122.258 345.393 122.942 345L167.975 319C168.657 318.605 169.467 318.292 170.358 318.078C171.25 317.865 172.206 317.755 173.171 317.755C174.137 317.755 175.092 317.865 175.984 318.078C176.876 318.292 177.686 318.605 178.367 319Z" fill="#7B83EB"/>
<path opacity="0.2" d="M126.985 326.666L116.994 332.434C121.07 333.273 125.474 333.427 129.695 332.878C133.917 332.329 137.781 331.1 140.841 329.334L136.22 326.666C134.993 325.962 133.333 325.566 131.602 325.566C129.872 325.566 128.212 325.962 126.985 326.666Z" fill="black"/>
<path opacity="0.1" d="M148.923 330L192.812 355.34C193.857 355.942 194.512 356.734 194.67 357.581C194.827 358.429 194.477 359.282 193.678 360C193.449 360.244 193.157 360.466 192.812 360.66L168.252 374.84C166.669 374.449 165.13 374.002 163.645 373.5C160.808 372.521 158.191 371.346 155.85 370L122.942 351C122.258 350.606 121.716 350.139 121.346 349.624C120.976 349.109 120.785 348.557 120.785 348C120.785 347.442 120.976 346.891 121.346 346.376C121.716 345.861 122.258 345.393 122.942 345L148.923 330Z" fill="black"/>
<path opacity="0.2" d="M145.458 332L192.812 359.34C193.157 359.533 193.449 359.755 193.678 360C194.477 360.717 194.827 361.57 194.67 362.418C194.512 363.266 193.857 364.057 192.812 364.66L173.448 375.84C171.674 375.585 169.936 375.25 168.252 374.84C166.669 374.449 165.13 374.002 163.645 373.5C160.808 372.521 158.191 371.346 155.85 370L122.942 351C122.258 350.606 121.716 350.139 121.346 349.624C120.976 349.109 120.785 348.557 120.785 348C120.785 347.442 120.976 346.891 121.346 346.376C121.716 345.861 122.258 345.393 122.942 345L145.458 332Z" fill="black"/>
<path opacity="0.2" d="M145.458 332L185.884 355.34C187.099 356.047 187.78 357.003 187.78 358C187.78 358.996 187.099 359.952 185.884 360.66L163.645 373.5C160.808 372.521 158.191 371.346 155.85 370L122.942 351C122.258 350.606 121.716 350.139 121.346 349.624C120.976 349.109 120.785 348.557 120.785 348C120.785 347.442 120.976 346.891 121.346 346.376C121.716 345.861 122.258 345.393 122.942 345L145.458 332Z" fill="black"/>
<path opacity="0.2" d="M122.942 345C122.258 345.393 121.716 345.861 121.346 346.376C120.976 346.891 120.785 347.442 120.785 348C120.785 348.557 120.976 349.109 121.346 349.624C121.716 350.139 122.258 350.606 122.942 351L155.85 370C158.191 371.346 160.808 372.521 163.645 373.5L182.42 362.66C183.635 361.952 184.316 360.996 184.316 360C184.316 359.003 183.635 358.047 182.42 357.34L141.994 334L122.942 345Z" fill="black"/>
<path d="M77.33 355.334L123.52 328.666C124.745 327.959 126.406 327.562 128.138 327.562C129.87 327.562 131.531 327.959 132.756 328.666L178.946 355.334C180.17 356.041 180.858 357 180.858 358C180.858 359 180.17 359.959 178.946 360.666L132.755 387.334C131.531 388.041 129.87 388.438 128.138 388.438C126.406 388.438 124.745 388.041 123.52 387.334L77.33 360.666C76.1054 359.959 75.4173 359 75.4173 358C75.4174 357 76.1054 356.041 77.33 355.334Z" fill="#4B53BC"/>
<path d="M131.446 343.99L121.089 349.97L148.871 366.01L142.074 369.934L114.292 353.894L103.872 359.91L97.0479 355.97L124.622 340.05L131.446 343.99Z" fill="white"/>
<path fill-rule="evenodd" clip-rule="evenodd" d="M121.738 661.635C115.902 665.009 115.905 670.469 121.738 673.832C127.563 677.2 137.024 677.199 142.869 673.83L153.436 667.729L142.877 661.632C137.053 658.265 127.591 658.265 121.738 661.635C121.742 661.632 121.742 661.632 121.738 661.635V661.635ZM149.913 677.901L121.742 694.166C115.906 697.54 115.905 703.003 121.738 706.365C127.558 709.736 137.019 709.735 142.869 706.368L171.044 690.101C176.88 686.727 176.881 681.264 171.047 677.902C165.219 674.531 155.757 674.532 149.913 677.901Z" fill="#36C5F0"/>
<path fill-rule="evenodd" clip-rule="evenodd" d="M227.393 645.365C221.569 641.998 212.107 641.998 206.263 645.368C200.426 648.742 200.426 654.205 206.259 657.567L216.826 663.669L227.394 657.568C233.23 654.193 233.231 648.731 227.393 645.365ZM199.218 661.632L171.044 645.366C165.223 642 155.766 641.998 149.917 645.365C144.081 648.74 144.08 654.202 149.913 657.565L178.088 673.832C183.908 677.202 193.37 677.201 199.219 673.834C205.055 670.46 205.056 664.997 199.218 661.632Z" fill="#2EB67D"/>
<path fill-rule="evenodd" clip-rule="evenodd" d="M255.568 706.368C261.404 702.993 261.405 697.531 255.572 694.168C249.747 690.8 240.286 690.801 234.441 694.17L223.874 700.271L234.437 706.37C240.257 709.735 249.719 709.735 255.568 706.368ZM227.389 690.099L255.564 673.832C261.4 670.457 261.401 664.995 255.567 661.632C249.747 658.262 240.286 658.262 234.437 661.629L206.262 677.896C200.426 681.271 200.425 686.733 206.258 690.096C212.087 693.466 221.544 693.468 227.389 690.099Z" fill="#ECB22E"/>
<path fill-rule="evenodd" clip-rule="evenodd" d="M149.912 722.632C155.737 726 165.198 725.999 171.043 722.63C176.879 719.255 176.88 713.793 171.047 710.43L160.484 704.331L149.916 710.432C144.08 713.807 144.079 719.269 149.912 722.632ZM178.087 706.365L206.262 722.632C212.082 726.002 221.544 726.002 227.393 722.635C233.229 719.26 233.23 713.798 227.397 710.435L199.226 694.171C193.406 690.8 183.945 690.801 178.096 694.168C172.251 697.542 172.254 703.002 178.087 706.365C178.087 706.365 178.092 706.368 178.087 706.365Z" fill="#E01E5A"/>
<path d="M1287.45 599.724L1327.43 576.642L1429.93 592.411L1389.87 615.545L1287.45 599.724Z" fill="url(#paint15_linear)"/>
<path d="M1429.93 592.412L1444.58 624.002L1369.57 667.313L1354.96 635.696L1429.93 592.412Z" fill="url(#paint16_linear)"/>
<path d="M1369.57 667.313L1314.94 658.804L1287.45 599.724L1342.3 608.207L1369.57 667.313Z" fill="url(#paint17_linear)"/>
<path opacity="0.1" d="M1369.57 667.313L1372.21 625.737L1354.96 635.696L1369.57 667.313ZM1429.93 592.411L1389.91 615.519L1365.9 611.824L1429.93 592.411ZM1287.45 599.724L1348.47 621.627L1342.3 608.207L1287.45 599.724Z" fill="black"/>
<path d="M800.922 751.465L751.712 779.876C757.604 783.278 765.595 785.189 773.927 785.189C782.258 785.189 790.249 783.278 796.141 779.876L805.206 774.643L813.958 779.696C826.224 786.768 846.093 786.768 858.358 779.696L809.46 751.465C807.103 750.104 803.281 750.103 800.922 751.465Z" fill="#2684FF"/>
<path d="M801.093 779.679L751.883 808.09C764.148 815.163 784.017 815.163 796.283 808.091L805.348 802.857L814.129 807.926C826.401 814.994 846.271 814.986 858.528 807.91L809.632 779.679C807.274 778.318 803.451 778.318 801.093 779.679L801.093 779.679Z" fill="url(#paint18_linear)"/>
<path d="M801.235 807.894L752.025 836.305C764.294 843.388 784.185 843.388 796.453 836.305L805.547 831.055L814.299 836.108C826.553 843.174 846.401 843.181 858.67 836.124L809.774 807.894C807.416 806.532 803.593 806.532 801.235 807.894Z" fill="url(#paint19_linear)"/>
<path d="M1409 287.596C1394.11 296.192 1369.97 296.192 1355.08 287.596C1340.2 278.999 1340.2 265.062 1355.08 256.465C1369.97 247.869 1394.11 247.869 1409 256.465C1423.89 265.062 1423.89 278.999 1409 287.596Z" fill="#E1393F"/>
<path d="M1363.95 263.686L1367.73 261.5L1386.66 272.429L1382.88 274.614L1363.95 263.686ZM1396.13 280.099C1403.41 275.85 1403.4 269.017 1396.04 264.789C1390.08 261.347 1380.79 260.642 1373.46 263.094L1377.41 265.371C1384.17 263.635 1392.07 265.402 1395.08 269.303C1398.09 273.205 1395.03 277.77 1388.27 279.507C1381.51 281.243 1373.61 279.476 1370.6 275.574C1369.1 273.583 1369.08 271.305 1370.6 269.303L1366.65 267.026C1361.51 272.204 1364.57 278.832 1373.54 281.805C1380.88 284.246 1390.13 283.52 1396.13 280.099Z" fill="#FAFAFA"/>
<path d="M1509.03 282.89C1506.36 284.432 1503.18 284.065 1499.39 281.879L1472.57 266.395C1468.72 264.169 1468.13 262.422 1470.86 260.85C1473.58 259.277 1476.64 259.716 1480.39 261.881L1507.21 277.365C1511.01 279.581 1511.67 281.368 1509.03 282.89ZM1496.68 302.704C1489.47 306.871 1482.5 307.811 1479.47 306.064C1477.61 305.033 1477.51 303.358 1479.22 302.245L1479.47 302.102C1481.44 300.968 1485.93 300.825 1490.02 298.466C1494.1 296.106 1493.8 293.543 1489.57 291.102C1489.27 290.928 1488.88 290.805 1488.48 290.571C1489.29 292.858 1488.03 295.238 1485.1 296.831C1478.89 300.416 1468.04 300.1 1460.1 295.514C1452.16 290.928 1451.77 284.31 1458.44 280.459C1460.74 278.989 1464.13 278.253 1467.55 278.447C1466.79 277.273 1467.14 275.945 1468.56 275.005C1471.23 273.463 1474.32 273.78 1478.2 276.016L1493.89 285.076C1498.58 287.782 1501.92 290.06 1502.91 292.389C1504.24 295.973 1502.2 299.518 1496.68 302.704ZM1466.82 284.157C1463.94 285.821 1464.19 288.579 1468.13 290.857C1472.08 293.134 1476.91 293.41 1479.88 291.694C1482.85 289.978 1482.44 287.231 1478.43 284.912C1474.39 282.584 1469.71 282.492 1466.82 284.157ZM1466.91 319.893C1459.69 324.06 1452.72 325 1449.7 323.253C1447.84 322.222 1447.74 320.547 1449.45 319.434L1449.7 319.291C1451.66 318.157 1456.16 318.014 1460.24 315.655C1464.33 313.295 1464.03 310.732 1459.8 308.291C1459.5 308.117 1459.11 307.995 1458.7 307.76C1459.52 310.048 1458.26 312.427 1455.32 314.021C1449.17 317.575 1438.27 317.289 1430.33 312.703C1422.39 308.117 1422 301.499 1428.67 297.648C1430.97 296.178 1434.36 295.442 1437.78 295.636C1437.02 294.462 1437.37 293.134 1438.78 292.194C1441.46 290.652 1444.55 290.969 1448.43 293.206L1464.12 302.265C1468.8 304.971 1472.15 307.249 1473.14 309.578C1474.55 313.112 1472.52 316.656 1466.91 319.893ZM1437.03 301.356C1434.15 303.021 1434.4 305.778 1438.34 308.056C1442.29 310.334 1447.12 310.609 1450.09 308.893C1453.06 307.178 1452.65 304.43 1448.64 302.112C1444.62 299.773 1439.92 299.691 1437.03 301.356ZM1428.65 329.811C1420.92 334.274 1409.52 334.09 1401.35 329.371C1393.18 324.653 1392.93 318.034 1400.59 313.612C1408.25 309.19 1419.71 309.333 1427.89 314.051C1436.06 318.77 1436.47 325.296 1428.74 329.759L1428.65 329.811ZM1407.99 317.881C1405.1 319.546 1405.35 322.304 1409.44 324.663C1413.52 327.022 1418.32 327.237 1421.25 325.541C1424.19 323.846 1423.82 321.078 1419.73 318.719C1415.65 316.359 1410.87 316.216 1407.99 317.881ZM1390.38 328.82L1389.71 329.208L1403.58 337.215C1407.37 339.401 1408.06 341.209 1405.42 342.73C1402.78 344.252 1399.65 343.854 1395.87 341.668L1382 333.661L1381.7 333.835C1378.89 335.459 1375.95 335.581 1373.88 334.386C1371.81 333.191 1372.16 331.537 1375.08 329.668L1371.65 327.686C1367.86 325.5 1367.17 323.693 1369.9 322.12C1372.62 320.547 1375.68 320.986 1379.47 323.172L1382.9 325.153L1383.59 324.755C1386.7 322.957 1389.89 322.692 1392.01 323.917C1394.13 325.143 1393.73 326.889 1390.38 328.82Z" fill="black"/>
<rect width="302.626" height="272.364" rx="10" transform="matrix(0.866025 -0.5 0.866025 0.5 591 547.313)" fill="url(#paint20_linear)" fill-opacity="0.8"/>
<path fill-rule="evenodd" clip-rule="evenodd" d="M535.642 515.422C531.771 514.042 529 510.345 529 506V418H687.062L751.241 380.946C756.024 378.185 763.779 378.185 768.562 380.946L832.741 418H990V506C990 509.143 988.55 511.948 986.282 513.781C985.73 514.371 985.023 514.924 984.161 515.422L768.562 639.898C763.779 642.66 756.024 642.66 751.241 639.898L535.642 515.422C535.642 515.422 535.642 515.422 535.642 515.422Z" fill="url(#paint21_linear)"/>
<rect width="272.114" height="272.114" rx="10" transform="matrix(0.866025 -0.5 0.866025 0.5 524 418.057)" fill="#FAFAFA"/>
<g clip-path="url(#clip1)">
<path d="M653.227 468.357C653.227 468.357 652.573 468.735 653.227 469.112L658.967 472.426C658.967 472.426 659.621 472.803 660.275 472.426L666.014 469.112C666.014 469.112 666.668 468.735 666.014 468.357L660.275 465.044C660.275 465.044 659.621 464.666 658.967 465.044L653.227 468.357Z" fill="#20BA82"/>
<path d="M651.193 459.633C651.193 459.633 650.539 460.01 651.12 460.346L656.86 463.66C656.86 463.66 657.441 463.995 658.095 463.618L663.835 460.304C663.835 460.304 664.416 459.969 663.835 459.633L658.095 456.319C658.095 456.319 657.441 455.942 656.86 456.277L651.193 459.633Z" fill="#20BA82"/>
<path d="M689.118 447.637C689.118 447.637 688.464 448.015 689.118 448.392L694.858 451.706C694.858 451.706 695.512 452.083 696.166 451.706L701.905 448.392C701.905 448.392 702.487 448.057 701.833 447.679L696.093 444.366C696.093 444.366 695.439 443.988 694.858 444.324L689.118 447.637Z" fill="#20BA82"/>
<path d="M660.129 454.474C660.129 454.474 659.475 454.852 660.129 455.229L665.869 458.543C665.869 458.543 666.45 458.878 667.104 458.501L672.844 455.187C672.844 455.187 673.497 454.81 672.916 454.474L667.104 451.119C667.104 451.119 666.45 450.741 665.796 451.119L660.129 454.474Z" fill="#343434"/>
<path d="M671.173 457.997C671.173 457.997 670.519 458.375 671.173 458.752L676.912 462.066C676.912 462.066 677.566 462.443 678.22 462.066L683.96 458.752C683.96 458.752 684.541 458.417 683.887 458.039L678.147 454.726C678.147 454.726 677.494 454.348 676.912 454.684L671.173 457.997Z" fill="#343434"/>
<path d="M669.138 449.273C669.138 449.273 668.485 449.651 669.138 450.028L674.878 453.342C674.878 453.342 675.459 453.677 676.113 453.3L681.853 449.986C681.853 449.986 682.434 449.651 681.853 449.315L676.041 445.96C676.041 445.96 675.387 445.582 674.805 445.918L669.138 449.273Z" fill="#343434"/>
<path d="M678.075 444.114C678.075 444.114 677.421 444.491 678.075 444.869L683.814 448.182C683.814 448.182 684.396 448.518 685.049 448.14L690.789 444.827C690.789 444.827 691.443 444.449 690.862 444.114L685.049 440.758C685.049 440.758 684.396 440.381 683.742 440.758L678.075 444.114Z" fill="#343434"/>
<path d="M696.02 433.754C696.02 433.754 695.367 434.132 696.02 434.509L701.76 437.823C701.76 437.823 702.341 438.158 702.995 437.781L708.735 434.467C708.735 434.467 709.389 434.09 708.808 433.754L702.995 430.399C702.995 430.399 702.341 430.021 701.688 430.399L696.02 433.754Z" fill="#343434"/>
<path d="M705.03 428.553C705.03 428.553 704.376 428.931 705.03 429.308L710.769 432.622C710.769 432.622 711.35 432.957 712.004 432.58L717.744 429.266C717.744 429.266 718.325 428.931 717.744 428.595L711.932 425.24C711.932 425.24 711.278 424.862 710.697 425.198L705.03 428.553Z" fill="#343434"/>
<path d="M740.921 442.31L738.668 443.611L725.809 439.542C724.646 439.207 723.411 438.661 723.411 438.661L723.338 438.703C723.338 438.703 724.21 439.458 724.864 440.087L731.911 447.511L729.659 448.812L710.987 443.065L713.239 441.765L726.172 445.96C727.407 446.337 728.787 446.966 728.787 446.966L728.86 446.924C728.86 446.924 727.843 446.085 727.189 445.372L719.996 437.864L722.03 436.69L735.036 440.842C736.271 441.22 737.724 441.807 737.724 441.807L737.796 441.765C737.796 441.765 736.707 440.968 736.053 440.255L728.787 432.789L730.967 431.531L740.921 442.31Z" fill="#343434"/>
<path d="M741.792 427.211C741.357 427.379 740.921 427.63 740.412 427.924C739.395 428.511 738.523 429.182 738.16 429.727L750.438 436.816L748.186 438.116L734.6 430.273C735.326 429.182 736.852 427.798 738.814 426.666C739.322 426.372 739.903 426.12 740.267 425.911L741.792 427.211Z" fill="#343434"/>
<path d="M743.391 424.359L745.571 423.1L759.883 431.363L757.704 432.622L743.391 424.359ZM741.575 422.052C740.775 422.513 739.613 422.513 738.814 422.052C738.087 421.632 738.087 420.877 738.814 420.458C739.613 419.997 740.848 420.039 741.575 420.458C742.374 420.919 742.301 421.632 741.575 422.052Z" fill="#343434"/>
<path d="M768.82 426.372C766.495 427.714 763.734 427.798 761.191 426.33L752.255 421.171L750.22 422.345L748.549 421.381L750.584 420.206L747.169 418.235L748.622 416.557L752.763 418.948L755.815 417.186L757.486 418.151L754.434 419.913L763.225 424.988C764.678 425.827 766.277 425.575 767.439 424.904C767.803 424.694 768.093 424.443 768.239 424.275L770.128 425.365C769.91 425.659 769.401 426.036 768.82 426.372Z" fill="#343434"/>
<path d="M765.623 413.118C763.08 414.586 763.516 416.683 766.64 418.571L773.324 413.454C770.564 411.86 767.73 411.902 765.623 413.118ZM776.739 412.992L768.384 419.41C771.653 421.045 774.995 420.878 777.756 419.284C779.209 418.445 780.372 417.354 780.808 416.515L783.205 417.061C782.769 417.983 781.389 419.284 779.5 420.374C775.213 422.849 769.91 422.723 765.187 419.997C760.755 417.438 760.174 414.334 764.025 412.111C767.585 410.056 772.089 410.14 775.867 412.321C776.013 412.573 776.376 412.782 776.739 412.992Z" fill="#343434"/>
<path d="M787.565 407.078C784.804 408.84 782.116 410.643 784.731 412.153C786.257 413.034 788.364 412.908 790.544 411.65C791.488 411.105 792.433 410.392 792.651 410.014L787.565 407.078ZM792.651 412.782C788.509 415.173 784.804 415.383 781.97 413.747C777.974 411.44 781.462 408.588 785.603 405.946L784.731 405.442C782.915 404.394 781.098 404.687 779.209 405.778C777.829 406.575 776.667 407.749 776.158 408.546L773.47 407.833C774.124 406.868 775.504 405.484 777.466 404.352C780.881 402.381 784.295 401.919 787.855 403.974L796.864 409.175C796.356 410.14 794.685 411.608 792.651 412.782Z" fill="#343434"/>
<path d="M797.664 396.215C797.155 396.341 796.356 396.634 795.629 397.054C793.668 398.186 793.522 399.78 796.574 401.542C799.407 403.177 802.096 403.219 804.057 402.087C804.711 401.709 805.292 401.122 805.583 400.787L797.664 396.215ZM812.412 407.917C810.16 409.217 807.763 410.014 805.874 410.434L804.057 408.211C805.51 407.959 807.399 407.288 808.998 406.365C811.105 405.149 811.032 403.932 809.07 402.8L808.199 402.297C807.835 402.842 806.963 403.597 806.019 404.142C802.386 406.239 797.373 406.197 793.086 403.723C788.291 400.954 788.655 397.893 793.159 395.292C795.193 394.118 797.446 393.321 799.189 392.985L812.558 400.703C816.626 403.052 816.263 405.694 812.412 407.917Z" fill="#343434"/>
<path d="M822.293 395.67C818.37 397.934 814.665 398.228 810.959 396.089L801.66 390.72L805.292 388.623L814.665 394.034C816.191 394.915 817.716 394.873 819.315 393.95C820.259 393.405 820.84 392.901 821.131 392.566L809.797 386.023L813.43 383.925L827.016 391.769C826.362 392.817 824.546 394.369 822.293 395.67Z" fill="#343434"/>
<path d="M816.699 382.038L820.332 379.941L834.645 388.204L831.012 390.301L816.699 382.038ZM816.263 379.689C815.101 380.36 813.357 380.36 812.267 379.731C811.177 379.102 811.25 378.053 812.34 377.424C813.502 376.753 815.246 376.753 816.336 377.382C817.498 377.969 817.426 379.018 816.263 379.689Z" fill="#343434"/>
<path d="M834.717 374.992C834.281 375.075 833.409 375.411 832.756 375.789C830.503 377.089 831.23 378.85 833.918 380.402C836.824 382.08 839.73 382.332 841.91 381.073C842.564 380.696 843.145 380.193 843.29 379.941L834.717 374.992ZM844.889 382.625C840.239 385.31 835.008 385.142 830.358 382.457C825.926 379.899 825.272 376.837 829.631 374.321C830.431 373.859 831.375 373.482 831.956 373.314L825.272 369.455L828.905 367.358L849.03 378.976C848.594 379.983 847.068 381.367 844.889 382.625Z" fill="#343434"/>
<path d="M847.069 367.19C845.18 368.281 845.252 369.833 847.868 371.426L853.099 367.484C850.919 366.225 848.74 366.225 847.069 367.19ZM858.33 366.561L850.338 372.601C852.736 373.649 855.351 373.314 857.385 372.139C858.839 371.301 860.001 370.21 860.51 369.329L864.215 370.294C863.634 371.301 862.035 372.727 859.928 373.943C855.206 376.669 849.684 376.334 845.252 373.775C840.893 371.259 840.239 368.029 844.38 365.638C848.304 363.373 853.171 363.583 857.022 365.806C857.603 366.058 857.967 366.267 858.33 366.561Z" fill="#343434"/>
<path d="M846.342 355.027L845.761 355.362L874.604 372.014L875.186 371.678L846.342 355.027Z" fill="#343434"/>
</g>
</g>
<defs>
<linearGradient id="paint0_linear" x1="93.5" y1="2" x2="315.22" y2="550.575" gradientUnits="userSpaceOnUse">
<stop stop-color="#EEEEEE" stop-opacity="0"/>
<stop offset="1" stop-color="#EEEEEE"/>
</linearGradient>
<linearGradient id="paint1_linear" x1="1407" y1="964.5" x2="842.383" y2="579.5" gradientUnits="userSpaceOnUse">
<stop stop-color="#EEEEEE" stop-opacity="0"/>
<stop offset="1" stop-color="#EEEEEE"/>
</linearGradient>
<linearGradient id="paint2_linear" x1="1440.5" y1="-2.49999" x2="1190.41" y2="517.731" gradientUnits="userSpaceOnUse">
<stop stop-color="#EEEEEE" stop-opacity="0"/>
<stop offset="1" stop-color="#EEEEEE"/>
</linearGradient>
<linearGradient id="paint3_linear" x1="45.9681" y1="-80.0318" x2="147.419" y2="192.905" gradientUnits="userSpaceOnUse">
<stop stop-color="#333333" stop-opacity="0.15"/>
<stop offset="1" stop-color="#333333" stop-opacity="0.15"/>
</linearGradient>
<linearGradient id="paint4_linear" x1="764.866" y1="191.067" x2="782.866" y2="191.067" gradientUnits="userSpaceOnUse">
<stop stop-color="#007EE5"/>
<stop offset="1" stop-color="#005DA8"/>
</linearGradient>
<linearGradient id="paint5_linear" x1="45.9681" y1="-80.0318" x2="147.419" y2="192.905" gradientUnits="userSpaceOnUse">
<stop stop-color="#333333" stop-opacity="0.15"/>
<stop offset="1" stop-color="#333333" stop-opacity="0.15"/>
</linearGradient>
<linearGradient id="paint6_linear" x1="1400.87" y1="390.067" x2="1418.87" y2="390.067" gradientUnits="userSpaceOnUse">
<stop stop-color="#E1393F"/>
<stop offset="1" stop-color="#A2282C"/>
</linearGradient>
<linearGradient id="paint7_linear" x1="45.9681" y1="-80.0318" x2="147.419" y2="192.905" gradientUnits="userSpaceOnUse">
<stop stop-color="#333333" stop-opacity="0.15"/>
<stop offset="1" stop-color="#333333" stop-opacity="0.15"/>
</linearGradient>
<linearGradient id="paint8_linear" x1="1355.89" y1="721.002" x2="1373.89" y2="721.002" gradientUnits="userSpaceOnUse">
<stop stop-color="#FCCD48"/>
<stop offset="1" stop-color="#DEB641"/>
</linearGradient>
<linearGradient id="paint9_linear" x1="45.9681" y1="-80.0318" x2="147.419" y2="192.905" gradientUnits="userSpaceOnUse">
<stop stop-color="#333333" stop-opacity="0.15"/>
<stop offset="1" stop-color="#333333" stop-opacity="0.15"/>
</linearGradient>
<linearGradient id="paint10_linear" x1="795.866" y1="908.067" x2="813.866" y2="908.067" gradientUnits="userSpaceOnUse">
<stop stop-color="#2784FF"/>
<stop offset="1" stop-color="#0152CC"/>
</linearGradient>
<linearGradient id="paint11_linear" x1="45.9681" y1="-80.0318" x2="147.419" y2="192.905" gradientUnits="userSpaceOnUse">
<stop stop-color="#333333" stop-opacity="0.15"/>
<stop offset="1" stop-color="#333333" stop-opacity="0.15"/>
</linearGradient>
<linearGradient id="paint12_linear" x1="179.866" y1="784.067" x2="197.866" y2="784.067" gradientUnits="userSpaceOnUse">
<stop stop-color="#75277D"/>
<stop offset="1" stop-color="#3A133E"/>
</linearGradient>
<linearGradient id="paint13_linear" x1="45.9681" y1="-80.0318" x2="147.419" y2="192.905" gradientUnits="userSpaceOnUse">
<stop stop-color="#333333" stop-opacity="0.15"/>
<stop offset="1" stop-color="#333333" stop-opacity="0.15"/>
</linearGradient>
<linearGradient id="paint14_linear" x1="147.866" y1="443.067" x2="165.866" y2="443.067" gradientUnits="userSpaceOnUse">
<stop stop-color="#7B83EB"/>
<stop offset="1" stop-color="#393C6D"/>
</linearGradient>
<linearGradient id="paint15_linear" x1="1287.45" y1="599.724" x2="1425.53" y2="620.985" gradientUnits="userSpaceOnUse">
<stop stop-color="#F6C338"/>
<stop offset="0.523" stop-color="#FFD351"/>
<stop offset="1" stop-color="#F6C338"/>
</linearGradient>
<linearGradient id="paint16_linear" x1="1429.93" y1="592.412" x2="1444.64" y2="647.144" gradientUnits="userSpaceOnUse">
<stop stop-color="#286EE6"/>
<stop offset="0.521" stop-color="#4286FB"/>
<stop offset="1" stop-color="#286EE6"/>
</linearGradient>
<linearGradient id="paint17_linear" x1="1287.57" y1="599.654" x2="1302.66" y2="679.644" gradientUnits="userSpaceOnUse">
<stop stop-color="#069B5A"/>
<stop offset="0.531" stop-color="#11AA62"/>
<stop offset="1" stop-color="#069B5A"/>
</linearGradient>
<linearGradient id="paint18_linear" x1="804.395" y1="777.872" x2="804.696" y2="802.426" gradientUnits="userSpaceOnUse">
<stop offset="0.18" stop-color="#0052CC"/>
<stop offset="1" stop-color="#2684FF"/>
</linearGradient>
<linearGradient id="paint19_linear" x1="806.102" y1="805.363" x2="805.973" y2="832.93" gradientUnits="userSpaceOnUse">
<stop offset="0.18" stop-color="#0052CC"/>
<stop offset="1" stop-color="#2684FF"/>
</linearGradient>
<linearGradient id="paint20_linear" x1="94.3268" y1="-161.299" x2="240.068" y2="287.699" gradientUnits="userSpaceOnUse">
<stop stop-color="#333333" stop-opacity="0.15"/>
<stop offset="1" stop-color="#333333" stop-opacity="0.15"/>
</linearGradient>
<linearGradient id="paint21_linear" x1="746.386" y1="570.74" x2="773.622" y2="570.74" gradientUnits="userSpaceOnUse">
<stop stop-color="#20BA82"/>
<stop offset="1" stop-color="#1D8D65"/>
</linearGradient>
<clipPath id="clip0">
<rect width="1619.96" height="965.07" fill="white"/>
</clipPath>
<clipPath id="clip1">
<rect width="225.586" height="41.3587" fill="white" transform="matrix(0.866044 -0.499967 0.866044 0.499967 644 463.785)"/>
</clipPath>
</defs>
</svg>
