<svg id="Ebene_1" data-name="Ebene 1" xmlns="http://www.w3.org/2000/svg" xmlns:xlink="http://www.w3.org/1999/xlink" viewBox="0 0 5890.71 1082.19"><defs><style>.cls-1{fill:none;}.cls-2{clip-path:url(#clip-path);}.cls-3{fill:#20ba82;}.cls-4{fill:#333;}</style><clipPath id="clip-path"><rect class="cls-1" y="2.19" width="5890.71" height="1080"/></clipPath></defs><g class="cls-2"><path class="cls-3" d="M19.72,260.69S0,260.69,0,280.41V453.47s0,19.71,19.72,19.71H192.78s19.71,0,19.71-19.71V280.41s0-19.72-19.71-19.72Z"/></g><g class="cls-2"><path class="cls-3" d="M216.88,2.19s-19.72,0-19.72,17.53V192.78s0,17.52,19.72,17.52H389.94s17.52,0,17.52-17.52V19.72S407.46,0,389.94,0L216.88,2.19Z"/></g><g class="cls-2"><path class="cls-3" d="M1101.91,260.69s-19.72,0-19.72,19.72V453.47s0,19.71,19.72,19.71H1275s17.52,0,17.52-19.71V280.41s0-19.72-17.52-19.72Z"/></g><g class="cls-2"><path class="cls-4" d="M486.33,2.19s-19.72,0-19.72,19.72V195s0,17.52,19.72,17.52H659.39s19.72,0,19.72-17.52V19.72S679.11,0,659.39,0L486.33,2.19Z"/></g><g class="cls-2"><path class="cls-4" d="M560.81,260.69s-19.71,0-19.71,19.72V453.47s0,19.71,19.71,19.71H733.87s17.53,0,17.53-19.71V280.41s0-19.72-17.53-19.72Z"/></g><g class="cls-2"><path class="cls-4" d="M758,2.19s-19.71,0-19.71,19.72V195s0,17.52,19.71,17.52H931s17.53,0,17.53-17.52V19.72S948.56,0,931,0L758,2.19Z"/></g><g class="cls-2"><path class="cls-4" d="M1027.42,2.19s-19.71,0-19.71,19.72V195s0,17.52,19.71,17.52h173.07s19.71,0,19.71-17.52V19.72S1220.2,0,1200.49,0L1027.42,2.19Z"/></g><g class="cls-2"><path class="cls-4" d="M1568.52,2.19s-19.72,0-19.72,19.72V195s0,17.52,19.72,17.52h173.06s19.72,0,19.72-17.52V19.72S1761.3,0,1741.58,0L1568.52,2.19Z"/></g><g class="cls-2"><path class="cls-4" d="M1840.16,2.19s-19.71,0-19.71,19.72V195s0,17.52,19.71,17.52h173.07s17.52,0,17.52-17.52V19.72S2030.75,0,2013.23,0L1840.16,2.19Z"/></g><g class="cls-2"><path class="cls-4" d="M2022,902.56h-67.91l-87.63-300.13c-8.76-26.28-13.14-59.14-13.14-59.14h-2.19s-6.58,32.86-13.15,59.14l-87.63,300.13h-67.91L1551,471h67.91l85.44,304.51c8.76,28.48,13.14,65.72,13.14,65.72h2.2S1726.25,804,1735,775.5L1822.64,471H1884L1971.6,775.5c8.77,28.48,15.34,65.72,15.34,65.72h2.19s4.38-37.24,13.14-65.72L2087.71,471h65.72Z"/></g><g class="cls-2"><path class="cls-4" d="M2429.45,521.38c-10.95-2.19-24.1-2.19-39.43-2.19-30.67,0-61.34,4.38-81.05,13.14V902.56h-67.92V492.9c39.44-17.52,98.58-30.67,157.73-30.67,15.34,0,30.67,2.19,41.63,2.19Z"/></g><g class="cls-2"><path class="cls-4" d="M2528,471h65.72V902.56H2528Zm32.86-87.62c-24.09,0-41.62-17.53-41.62-41.63,0-21.9,19.72-41.62,41.62-41.62a41.63,41.63,0,1,1,0,83.25"/></g><g class="cls-2"><path class="cls-4" d="M2858.82,906.94c-70.1,0-113.91-39.43-113.91-116.11V521.38h-61.34V471h61.34V368l65.72-21.9V471h92v50.39h-92V786.45c0,43.81,30.67,61.34,65.72,61.34a97.27,97.27,0,0,0,28.48-4.38v57c-11,4.38-28.48,6.57-46,6.57"/></g><g class="cls-2"><path class="cls-4" d="M3156.75,512.62c-76.67,0-124.86,61.34-127.05,157.72l234.4-32.86c0-83.24-43.82-124.86-107.35-124.86m170.88,164.3-293.55,41.62c6.57,92,61.34,138,144.58,138,43.81,0,89.82-10.95,118.3-26.29l21.9,50.39c-30.67,17.52-85.43,30.67-142.39,30.67-129.25,0-205.92-83.25-205.92-225.64,0-133.63,72.29-223.45,188.4-223.45,107.34,0,173.06,70.1,173.06,184-4.38,8.76-4.38,19.71-4.38,30.67"/></g><g class="cls-2"><path class="cls-4" d="M3645.27,685.68c-87.62,4.38-175.25,11-175.25,89.82,0,46,35.05,74.48,100.77,74.48,28.48,0,61.34-4.38,74.48-11ZM3573,911.32c-124.87,0-186.21-50.39-186.21-135.82,0-120.49,127.06-142.4,258.5-149V600.24c0-54.76-35.05-74.48-92-74.48-41.63,0-89.82,13.14-118.3,26.29l-21.91-59.15c35.05-15.33,92-30.67,151.16-30.67,103,0,166.49,39.43,166.49,146.78V880.65c-32.86,17.52-96.39,30.67-157.73,30.67"/></g><g class="cls-2"><path class="cls-4" d="M4081.22,554.24c-11-4.38-30.67-8.76-52.58-8.76-59.15,0-103,39.43-103,131.44,0,85.43,39.43,127.06,98.58,127.06,19.72,0,43.81-6.58,57-11V554.24Zm-83.25,528c-67.91,0-124.87-15.33-164.3-32.86l30.67-85.44c28.48,15.34,74.48,26.29,122.68,26.29,63.53,0,94.2-32.86,94.2-92V871.89c-19.72,8.76-52.58,15.33-81.06,15.33-109.53,0-184-76.67-184-205.92,0-144.59,85.43-219.07,221.25-219.07,61.34,0,116.11,13.15,151.16,30.67V896c0,122.68-74.48,186.21-190.59,186.21"/></g><g class="cls-2"><path class="cls-4" d="M4466.77,911.32c-118.29,0-181.82-48.2-181.82-159.92V471h109.53v282.6c0,46,24.1,67.91,72.29,67.91,28.48,0,50.39-4.38,63.53-8.76V471h109.54V880.65c-37.24,17.52-105.15,30.67-173.07,30.67"/></g><g class="cls-2"><path class="cls-4" d="M4738.42,471H4848V902.56H4738.42Zm54.76-67.91c-35.05,0-61.33-26.28-61.33-59.14s28.47-59.15,61.33-59.15c35.06,0,61.34,26.29,61.34,59.15,2.19,32.86-26.29,59.14-61.34,59.14"/></g><g class="cls-2"><path class="cls-4" d="M5194.08,558.62c-8.77-4.38-30.67-8.76-50.39-8.76-67.91,0-103,57-103,138,0,87.63,37.24,138,103,138,19.72,0,41.62-4.38,50.39-8.76Zm-46,352.7c-140.2,0-214.68-83.25-214.68-223.45,0-133.63,70.1-223.45,201.54-223.45,24.1,0,48.19,4.38,61.34,8.76V271.64H5305.8V878.46c-32.86,19.71-92,32.86-157.73,32.86"/></g><g class="cls-2"><path class="cls-4" d="M5584,541.1c-57,0-96.39,41.62-98.58,122.67l181.82-24.09c0-65.72-32.86-98.58-83.24-98.58m186.2,153.34L5492,731.68c8.76,63.53,57,94.2,118.29,94.2,43.82,0,89.82-11,120.49-26.29l30.67,81.06c-35.05,17.52-96.39,30.67-159.92,30.67-142.39,0-216.87-92-216.87-225.64C5384.67,554.24,5459.15,460,5584,460c118.29,0,186.2,78.86,186.2,195,2.19,15.33,2.19,26.29,0,39.43"/></g><rect class="cls-4" x="5873.18" y="212.49" width="17.53" height="869.7"/></svg>